<?xml version="1.0" encoding="UTF-8" standalone="no"?>
<svg
   xmlns:dc="http://purl.org/dc/elements/1.1/"
   xmlns:cc="http://creativecommons.org/ns#"
   xmlns:rdf="http://www.w3.org/1999/02/22-rdf-syntax-ns#"
   xmlns:svg="http://www.w3.org/2000/svg"
   xmlns="http://www.w3.org/2000/svg"
   xmlns:xlink="http://www.w3.org/1999/xlink"
   version="1.1"
   id="svg2"
   viewBox="0 0 392.71384 503.78317"
   height="503.7832"
   width="392.71384">
  <title
     id="title4308">Superhero</title>
  <defs
     id="defs4">
    <linearGradient
       id="linearGradient4322">
      <stop
         style="stop-color:#ffff00;stop-opacity:0.94387758"
         offset="0"
         id="stop4324" />
      <stop
         style="stop-color:#ffd700;stop-opacity:0"
         offset="1"
         id="stop4326" />
    </linearGradient>
    <radialGradient
       xlink:href="#linearGradient4322"
       id="radialGradient4328"
       cx="1391.012"
       cy="476.14417"
       fx="1391.012"
       fy="476.14417"
       r="397.88522"
       gradientUnits="userSpaceOnUse"
       gradientTransform="matrix(0.44714854,0,0,0.44714854,543.74501,608.30021)"
       spreadMethod="pad" />
    <filter
       style="color-interpolation-filters:sRGB"
       id="filter4555"
       x="-0.063705735"
       width="1.1274115"
       y="-0.17635606"
       height="1.3527122">
      <feGaussianBlur
         stdDeviation="17.913545"
         id="feGaussianBlur4557" />
    </filter>
  </defs>
  <metadata
     id="metadata7">
    <rdf:RDF>
      <cc:Work
         rdf:about="">
        <dc:format>image/svg+xml</dc:format>
        <dc:type
           rdf:resource="http://purl.org/dc/dcmitype/StillImage" />
        <dc:title>Superhero</dc:title>
        <cc:license
           rdf:resource="http://creativecommons.org/publicdomain/zero/1.0/" />
        <dc:date>2016--03-11</dc:date>
        <dc:creator>
          <cc:Agent>
            <dc:title>mazeo</dc:title>
          </cc:Agent>
        </dc:creator>
        <dc:publisher>
          <cc:Agent>
            <dc:title>openclipart.org</dc:title>
          </cc:Agent>
        </dc:publisher>
        <dc:source>https://openclipart.org/detail/232950/black-cat-comics-heroine</dc:source>
        <dc:language>en</dc:language>
        <dc:subject>
          <rdf:Bag>
            <rdf:li>superhero</rdf:li>
            <rdf:li>heroine</rdf:li>
            <rdf:li>comic</rdf:li>
            <rdf:li>comics characters</rdf:li>
            <rdf:li>comic book</rdf:li>
            <rdf:li>hero</rdf:li>
            <rdf:li>people</rdf:li>
            <rdf:li>woman</rdf:li>
            <rdf:li>remix+232950</rdf:li>
          </rdf:Bag>
        </dc:subject>
        <dc:description>A comic book superhero woman runs.</dc:description>
        <dc:contributor>
          <cc:Agent>
            <dc:title>mazeo, liftarn, Harvey Comics</dc:title>
          </cc:Agent>
        </dc:contributor>
      </cc:Work>
      <cc:License
         rdf:about="http://creativecommons.org/publicdomain/zero/1.0/">
        <cc:permits
           rdf:resource="http://creativecommons.org/ns#Reproduction" />
        <cc:permits
           rdf:resource="http://creativecommons.org/ns#Distribution" />
        <cc:permits
           rdf:resource="http://creativecommons.org/ns#DerivativeWorks" />
      </cc:License>
    </rdf:RDF>
  </metadata>
  <g
     transform="translate(-987.82021,-643.29365)"
     id="g4267">
    <circle
       style="color:#000000;clip-rule:nonzero;display:inline;overflow:visible;visibility:visible;opacity:1;isolation:auto;mix-blend-mode:normal;color-interpolation:sRGB;color-interpolation-filters:linearRGB;solid-color:#000000;solid-opacity:1;fill:url(#radialGradient4328);fill-opacity:1;fill-rule:nonzero;stroke:none;stroke-width:4.23000002;stroke-linecap:butt;stroke-linejoin:round;stroke-miterlimit:4;stroke-dasharray:none;stroke-dashoffset:0;stroke-opacity:1;marker:none;color-rendering:auto;image-rendering:auto;shape-rendering:auto;text-rendering:auto;enable-background:accumulate"
       id="path4320"
       cx="1165.734"
       cy="821.2074"
       r="177.9138" />
    <path
       style="fill:none;fill-rule:evenodd;stroke:#000000;stroke-width:5;stroke-linecap:butt;stroke-linejoin:miter;stroke-miterlimit:4;stroke-dasharray:none;stroke-opacity:1;filter:url(#filter4555)"
       d="m 1147.2294,1076.517 c 398.376,-121.89122 398.376,-121.89122 398.376,-121.89122 l -145.6748,169.45852 l 422.1597,-243.78242 l 0,0"
       id="path4501"
       transform="matrix(0.44714854,0,0,0.44714854,546.56499,625.22011)" />
    <path
       style="fill:#000000"
       d="m 1089.0479,688.53748 c -9.2253,15.91212 7.7255,38.69463 -12.6464,48.30645 c 1.8642,13.10619 -11.6638,18.60064 -18.1292,12.38261 c -14.8163,-8.91155 -24.4548,8.94909 -21.8683,17.12788 c -11.624,0.58396 -19.6124,21.69009 -2.8242,24.55497 c 7.8327,-2.74166 8.1558,-4.77653 14.3496,2.23028 c 12.2727,4.22658 18.8983,-15.3359 31.3645,-5.42273 c 9.9218,1.3321 16.8321,-14.138 20.7047,0.91071 c 8.5852,9.83368 29.2801,8.25339 12.2902,24.65624 c -14.2703,15.96683 -2.2797,35.54629 0.5806,53.04767 c -0.3879,8.66094 2.3016,28.96146 -8.8001,12.73575 c -5.756,-6.97569 -8.8106,-15.76932 -13.997,-22.84911 c -0.5487,-8.65266 0.2283,-14.59354 -2.6261,-23.4133 c -2.9026,-5.6645 -4.5844,-19.56273 -13.9621,-11.94725 c -16.9764,-4.10839 -13.8585,23.07506 -8.3656,31.5722 c 12.9641,5.25317 9.2607,20.28683 15.7048,31.58963 c 3.3382,11.0194 3.5416,25.5501 11.0926,33.96372 c 12.4531,-8.63742 29.8955,12.47013 37.9386,-1.39996 c 10.9117,-12.57405 4.6302,-37.32181 12.8861,-45.75151 c 16.12,-2.27779 28.2554,-1.06603 43.7134,5.50414 c 19.8735,-0.64397 22.0574,18.57771 12.1767,31.19447 c -24.1737,6.89896 -46.0542,19.67681 -68.1128,31.18733 c -9.214,16.25336 -11.3516,36.13765 -21.123,51.91145 c -11.5991,9.44258 -12.9858,29.53038 -23.429,41.54198 c 14.1648,16.3694 5.5647,34.307 -6.2958,49.7242 c -12.8944,6.8814 -9.5849,32.7602 -23.8345,28.6526 c -16.0013,14.8013 13.2205,19.0503 23.4748,12.9274 c 2.389,-3.9366 11.0809,-22.3442 12.7448,-18.4816 c -11.8396,12.9064 7.0243,16.3464 9.5818,2.7455 c 8.7434,-9.093 3.1,-21.4509 6.0605,-30.987 c 5.0063,-18.9409 26.7613,-13.8952 37.1428,-24.2677 c -0.857,-13.6101 6.5937,-26.8931 13.0258,-37.7462 c 2.666,-11.2559 -13.9594,-14.5981 -4.5702,-27.46344 c -5.7897,-23.81633 18.9007,-23.62029 35.4476,-22.47608 c 13.4205,1.51547 4.1518,28.2011 12.8319,38.60242 c 2.4247,20.0969 20.084,31.6857 39.3494,26.7786 c 9.3226,10.7082 26.4383,29.1499 41.8747,17.6449 c 9.8758,-15.1265 17.4374,-2.2187 15.3377,10.5139 c 5.0344,7.2603 -9.0896,25.3619 8.0861,18.9726 c 15.2982,-6.4347 7.1684,-23.0156 13.3385,-34.7746 c 15.6545,6.5597 1.9148,-26.5071 -11.8192,-18.0766 c -15.3057,1.1646 -6.9243,-27.61991 -22.4995,-24.9518 c -13.2644,-10.17788 -29.2559,-6.60444 -45.148,-4.21385 c -11.5531,0.8795 10.888,-22.03335 7.6809,-31.28897 c -2.5135,-19.90288 23.0294,-22.85648 26.5757,-40.95958 c 1.8224,-9.2685 2.1893,-22.88511 -3.1106,-30.77143 c -2.9426,-7.61902 -11.46,-16.7405 -18.99,-22.64099 c -18.7135,-17.3948 -26.5438,-43.08932 -44.6293,-61.27245 c -20.181,-15.10413 17.3304,-7.88003 26.3032,-13.73011 c 20.14,-10.00625 27.556,13.6977 43.347,20.52432 c 11.7995,6.55483 18.299,18.41059 11.1856,30.78779 c 4.637,13.32724 14.8511,9.01675 26.8456,14.53579 c 13.3562,-7.1262 8.7526,-16.46817 3.3503,-22.82956 c -5.3731,-4.22904 -12.9258,-11.5281 -13.7018,-20.99764 c -6.6106,-12.03079 -5.663,-39.01411 -24.614,-35.38704 c -11.5839,-4.34703 -23.247,-16.48243 -37.9995,-13.54306 c -18.5226,-1.3881 -37.339,3.2286 -55.5491,-1.1123 c 0.6406,-14.04524 -19.1248,-17.44928 -29.0689,-17.75653 c -11.0386,3.24686 -7.4594,-17.80911 -17.5174,-22.96439 c -9.7674,-8.55039 -1.38,-24.39796 -0.8951,-35.79107 c -10.9558,5.17624 -8.1432,35.24244 -27.1146,25.99834 c -11.0207,6.28454 -18.5262,6.2944 -19.8399,-8.72089 c -1.9916,-6.05565 -1.4376,-13.0804 -3.3053,-18.8371 z m 68.6879,326.84462 c -0.014,-0.012 -0.014,0.018 0,0 z m -0.014,0 c -0.01,-0.01 -0.041,0.024 0,0 z"
       id="path4173" />
    <g
       id="g3433">
      <path
         id="path3427"
         d="m 1112.6603,715.86594 c -4.717,0.22078 -10.2509,2.93666 -14.7681,5.6427 c -4.687,2.85642 -9.6703,5.33662 -14.1593,8.31378 c -5.4351,3.93829 -10.9829,9.61498 -9.7402,16.99102 c -0.744,5.37061 -6.8896,5.51038 -11.6051,4.64376 c -2.2867,-1.54874 -3.1445,-2.27948 -3.7048,-1.48396 c -3.3655,-3.30498 -11.3232,-3.40172 -16.083,-0.87272 c -6.0308,2.80054 -9.583,11.27959 -3.8777,16.18507 c -3.0862,1.21452 -4.6283,1.78441 -7.2989,2.96675 c -5.7358,2.82703 -10.3316,10.2924 -6.6949,16.46749 c 2.7767,4.84512 11.938,9.6574 15.8971,3.42644 c 2.5157,-3.36445 3.2135,5.95851 7.304,4.9934 c 5.5105,2.88506 10.921,-1.51126 15.1197,-4.57358 c 5.174,-7.93653 12.3308,0.92155 19.3278,-0.948 c 4.4296,-1.16455 15.0336,-5.07335 11.5754,-10.53546 c -3.1363,-9.882 -6.6549,-20.63832 -3.8667,-30.99248 c 2.5577,-7.3284 12.7417,-6.64106 18.7359,-5.2386 c 3.6494,5.37475 5.0712,-3.80778 7.0901,-3.27417 c 6.5725,-1.24802 15.0043,-1.69827 18.5733,5.31172 c 2.5583,1.95318 5.4614,10.87748 4.7942,10.08989 c 0.9729,-4.22826 0.1982,8.06977 1.9752,9.58526 c 1.1255,5.11052 -0.574,10.19481 0.661,15.53522 c 0.09,3.90027 6.5446,5.04903 9.8916,6.09985 c 1.8498,-4.78412 7.2111,-7.89219 11.4289,-11.00013 c 7.2548,-2.92726 14.7988,-5.63636 22.7652,-5.10691 c 3.0917,-0.0972 14.0427,1.3033 6.2681,-0.82743 c -3.584,-0.28614 -6.7534,0.085 -5.4693,-4.37671 c -0.2491,-7.70742 -8.8022,-10.1311 -15.2071,-9.87623 c -3.7376,-4.32039 -10.5258,-7.66797 -16.2412,-3.21946 c -8.2167,0.64972 -2.2954,-12.22197 -9.1793,-15.75851 c -4.6097,-3.92095 -5.8804,-11.06022 -11.8961,-13.32045 c -6.5585,-3.61794 -14.2933,-5.19028 -21.6158,-4.84755 z m 26.8106,42.07388 l 0,0.24366 z m 0,1.7982 l 0,0.34409 z"
         style="fill:#a05a2c;fill-opacity:1;stroke:#000000;stroke-width:2.23574281;stroke-linejoin:round;stroke-miterlimit:4;stroke-dasharray:none" />
      <path
         id="path3421"
         d="m 1110.2577,716.20379 c -3.5824,2.77579 -6.5752,3.74677 -9.0742,3.45312 c -6e-4,-8e-5 0,8e-5 0,0 c -1.1349,0.59776 -2.2407,1.22356 -3.2891,1.85156 c -4.687,2.85642 -9.6711,5.3373 -14.1601,8.31446 c -2.8303,2.0508 -5.6811,4.57637 -7.5977,7.56445 c -1.0192,2.078 -1.7434,4.42273 -2.3008,7.04492 c -0.019,0.77415 0.021,1.56509 0.1582,2.38086 c -0.744,5.37061 -6.888,5.51115 -11.6035,4.64453 c -0.4352,-0.29476 -0.7757,-0.52914 -1.1152,-0.75976 c -4.7341,-0.96175 -9.6734,-2.89531 -14.1445,-3.07422 c -1.6435,0.28522 -3.211,0.77609 -4.5293,1.47656 c -4.3052,1.99918 -7.3257,6.88962 -6.6387,11.31055 c 1.0658,-1.52526 4.101,-8.3173 10.0371,-10.32813 c 12.0781,-1.44674 19.3141,15.53844 30.8066,0.84375 c 0.3119,-5.68734 10.3068,-29.016 11.8555,-14.72656 c -3.4146,2.83102 -12.8174,18.03563 -4.5078,9.38867 c 12.6118,-11.27977 -4.1374,12.79081 1.1289,5.14063 c 5.7893,3.7952 -5.3231,12.16531 -15.2207,11.48437 c 2.9263,0.66977 -12.2409,3.88371 -15.2305,12.19141 c -3.8681,4.76611 -5.9462,14.70787 -1.2656,14.50586 c -1.5771,4.35599 -7.5164,1.67719 -10.0937,0.46289 c 0.2372,0.42084 0.4916,0.84288 0.7558,1.2832 c 0.7737,0.6409 1.7377,1.43551 3.0801,2.54688 c 0.1993,0.003 0.4053,-0.0131 0.623,-0.0645 c 0.33,0.17278 0.6593,0.31706 0.9883,0.43946 c 4.1363,0.17657 9.6906,-2.71856 14.6016,-5.67969 c 1.3177,-1.73215 2.7547,-2.47422 4.2773,-2.65039 c 2.9774,-1.87097 5.3411,-3.32242 6.3906,-3.35742 c -0.4814,-0.24459 -0.9924,-0.4225 -1.5312,-0.53125 c 1.0242,-0.10289 1.9931,-0.74938 -0.9648,-0.19727 c 0.028,0.0287 0.067,0.0479 0.1015,0.0703 c -3.3921,-0.267 -7.5157,1.62311 -10.7812,3.82813 c -0.4206,1.30947 -0.8873,0.94234 -0.4473,0.30469 c -0.8656,0.607 -1.6855,1.22367 -2.375,1.82812 c -4.8596,1.71754 6.7742,-12.82192 12.1797,-14.83594 c 5.6592,-0.77062 21.1334,-0.79941 11.1699,-2.73437 c -18.4572,-1.6431 0.057,-7.9206 4.9727,-8.71485 c 1.0387,8.6379 4.8705,11.94039 -4.2364,14.08008 c -5.242,1.5649 9.203,10.67367 -0.5039,9.66211 c 0.7112,0.37408 -1.5566,2.35925 -8.3769,-0.1582 c -0.055,0.7609 0.031,1.35896 0.2109,1.84375 c 1.5044,0.5089 3.0372,1.04006 4.5918,1.33203 c 4.6409,-0.96742 11.4989,-4.79889 15.375,-5.82422 c 1.1347,-1.3998 1.4976,-2.99784 0.3809,-4.76172 c -3.1363,-9.882 -6.6554,-20.63803 -3.8672,-30.99218 c 2.3228,-6.6554 10.9049,-6.68831 16.957,-5.58985 c -0.1497,-1.80075 0.9047,-2.42506 4.3203,-0.082 c 5.8904,-2.49343 2.8973,-10.81117 -0.2988,-7.9414 c -8.7385,-4.35599 3.4341,9.70652 -4.8594,3.26562 c -14.1345,-7.20453 12.7922,-9.7774 1.8828,-12.8457 c 2.5447,-2.44723 -10.911,9.73909 -7.3574,-1.28516 c 7.8187,-1.49476 17.3442,-5.9927 22.3399,-0.31445 c -6.5219,1.32344 -4.6245,0.63725 -2.8262,8.11719 c -11.4941,-1.90911 1.5439,3.19208 -2.6211,6.92578 c -0.073,0.33597 -0.1562,0.66303 -0.2344,0.99414 c 6.3125,-1.01713 13.7861,-0.94578 17.0957,5.55468 c 2.1964,1.67686 4.6322,8.45523 4.8594,9.85157 c 0.8676,-3.34681 0.1769,8.34603 1.9101,9.82421 c 1.1256,5.11052 -0.5728,10.19475 0.6622,15.53516 c 0.09,3.90027 6.5436,5.04879 9.8906,6.09961 c 1.8498,-4.78412 7.2119,-7.89206 11.4297,-11 c 7.2548,-2.92726 14.7992,-5.63687 22.7656,-5.10742 c 2.4279,-0.0763 9.663,0.76405 8.9102,0.0996 c -2.4373,-0.26684 -4.8649,-0.64024 -7.2793,-1.16016 c 0.01,-0.14584 0.01,-0.28082 0.014,-0.42383 c -1.0325,-0.5118 -1.4745,-1.53611 -0.8457,-3.7207 c -0.05,-1.5359 -0.44,-2.85336 -1.0664,-3.99023 c -1.1102,-1.65135 -2.6361,-2.95238 -4.4161,-4.01954 c -2.9399,-1.46702 -6.5869,-1.99009 -9.7246,-1.86523 c -0.8519,-0.98478 -1.8701,-1.91196 -2.9902,-2.71484 c -2.8488,-0.77635 -5.5638,-1.55372 -7.7734,-2.59375 c -0.098,0.005 -0.1953,0.0235 -0.293,0.0312 c -16.2908,6.61054 5.1626,-2.3198 7.5293,6.18359 c -12.2507,10.74517 17.6864,-5.23461 14.1719,10.5293 c -2.7274,6.18493 -13.3604,4.48041 -12.8125,0.81445 c 13.5315,-4.22282 6.1101,-5.46304 -2.2989,-1.2207 c -6.1774,9.12856 -10.9488,8.42962 -19.2207,13.3125 c -7.1663,-3.7807 -3.0159,-10.23813 -1.1465,-15.11914 c -4.3255,2.7635 -5.5437,-1.55299 -2.1738,-3.10938 c 3.8653,-7.12443 -1.6808,-16.19658 8.3047,-5.9707 c -0.1427,-1.30178 -0.4199,-2.73153 -0.7949,-4.23242 c -1.3357,-1.20049 -1.6219,-3.47624 -1.8926,-5.93164 c -1.1851,-3.08158 -2.7146,-6.28923 -4.5059,-9.40039 c -4.223,-3.99293 -5.6222,-10.69789 -11.4218,-12.87696 c -3.9897,-2.20084 -8.4154,-3.63331 -12.918,-4.34961 c -3.2453,0.64301 -7.2,0.40435 -11.0996,-0.16015 z m 29.086,36.53711 c -0.022,0.0845 -0.04,0.1342 -0.065,0.23828 c 0.094,0.11142 0.102,-0.008 0.065,-0.23828 z m -78.7793,32.625 c 0.1464,-0.10268 0.2969,-0.20318 0.4472,-0.30469 c 0.023,-0.0725 0.048,-0.11995 0.07,-0.20313 c -0.2498,0.17063 -0.4051,0.34487 -0.5176,0.50782 z m 13.623,-3.47461 c 0.1909,0.097 0.3862,0.18646 0.5664,0.30664 c -0.076,-0.22721 -0.2767,-0.3163 -0.5664,-0.30664 z m 32.3867,-57.02344 c 0.1084,-0.0377 0.3691,-0.0118 0.8652,0.15039 c -0.1472,0.65374 -1.1903,-0.0373 -0.8652,-0.15039 z m 30.1797,0.76562 c 0.5201,-0.0815 1.4411,2.0623 2.8203,7.91602 c 3.0714,13.36017 0.8292,-2.031 4.4219,1.47461 c 7.4915,9.56264 -5.4047,10.74904 -0.8848,22.56445 c -4.0704,3.43984 -1.5793,-11.78031 -4.5664,-14.95508 c -2.1384,-5.87638 -2.9352,-16.82065 -1.791,-17 z m -49.9863,22.83594 c 0.036,0.002 -0.033,0.23706 -0.2793,0.85742 c -1.9937,3.5203 0.1212,-0.86418 0.2793,-0.85742 z m 68.1621,5.30469 c -0.1171,-0.0351 -0.3662,0.0199 -0.8145,0.25781 c 0.3175,0.76519 1.1658,-0.1525 0.8145,-0.25781 z m -107.9531,1.00781 c -0.028,-0.0455 -0.2634,0.0358 -0.8711,0.37305 c -0.8275,1.04368 0.9543,-0.23661 0.8711,-0.37305 z m -1.3282,2.1211 c -2.027,0.10631 -3.5691,1.42215 -2.8496,6.40624 c 3.2444,-1.80396 11.4161,-3.3973 9.291,-6.04492 c -0.4282,1.3648 -3.8351,-0.49801 -6.4414,-0.36132 z m 93.8223,1.0371 l 0,0.24414 l 0,-0.24414 z m 19.502,0.46875 c -2.8024,0.77117 -13.2941,-2.6753 -8.5235,10.87696 c 5.1257,2.83957 12.5005,-6.74186 8.5235,-10.87696 z m -19.502,1.33008 l 0,0.34375 l 0,-0.34375 z m -98.1992,0.20117 c -0.034,0.0567 0.011,0.4637 0.2226,1.49805 c 0.7089,1.31789 -0.1199,-1.66802 -0.2226,-1.49805 z m 11.7305,4.86914 c -1.7617,-0.17195 -6.3717,3.67487 -8.0215,10.61719 c 0.3001,2.37582 3.0405,-2.36092 4.2324,-2.48633 c 4.806,-5.4322 5.1593,-7.99711 3.7891,-8.13086 z m 126.3789,2.09571 c -0.1171,-0.0351 -0.3663,0.0199 -0.8145,0.25781 c 0.3173,0.76519 1.1657,-0.1525 0.8145,-0.25781 z m -144.7735,0.006 c -0.3154,0.12707 -0.6823,0.29141 -1.0019,0.42383 c 3.5232,5.78572 -1.4401,10.74467 -3.6797,13.52734 c 7.5358,2.30349 9.2883,-11.60942 4.6816,-13.95117 z m -2.9316,1.23633 c -0.093,0.0411 -0.1557,0.0628 -0.252,0.10546 c -1.6945,0.83521 -3.283,2.08219 -4.5957,3.57422 c 3.3792,-1.95473 4.7364,-3.19053 4.8477,-3.67968 z m 27.5957,1.3496 c 0.1061,-0.006 0.2786,0.10333 0.539,0.4043 c -0.2168,1.81301 -0.9987,-0.37924 -0.539,-0.4043 z m -34.4102,5.20508 c -0.01,-0.004 -0.015,0.004 -0.022,0.002 c -0.6383,1.21172 -1.0911,2.49731 -1.2871,3.81445 c -0.03,0.24814 -0.056,0.49834 -0.076,0.75977 c -0.013,0.17099 -0.03,0.34223 -0.033,0.51367 c 0,0.0644 -0.01,0.13034 -0.01,0.19531 c 0,1.59703 0.3926,3.2036 1.2929,4.73242 c 1.3366,2.3322 4.1553,4.64341 7.1582,5.73242 c 0.1043,-0.003 0.1961,0.008 0.3028,0.002 c 0.1041,0.0794 0.2141,0.14707 0.3261,0.20898 c 0.5316,0.16013 1.0633,0.27395 1.5938,0.3457 c 1.6738,-0.0268 3.5465,-1.05815 4.5059,-2.19726 c 3.9451,-3.00511 3.137,-15.06398 -1.6836,-4.80078 c -0.1329,6.39309 -10.776,2.72823 -12.4395,-1.45313 c 0.8618,-5.46023 0.7571,-7.64092 0.3691,-7.85547 z m 120.6602,2.70703 c 0.1769,-0.0203 0.4297,0.0268 0.7734,0.18946 c -0.8802,1.25615 -1.5401,-0.10137 -0.7734,-0.18946 z m -57.627,7.50586 c -0.2188,0.0253 -0.4112,0.1531 -0.4629,0.45703 c 0.623,0.0944 0.9466,0.0736 1.1055,0.01 c 0.028,-0.0132 0.056,-0.0257 0.084,-0.0391 c 0.1841,-0.16296 -0.3131,-0.47551 -0.7265,-0.42774 z m -50.3925,0.87305 c 0.1403,-0.0211 0.3296,0.0257 0.5742,0.1875 c -0.8585,1.26363 -1.1823,-0.0961 -0.5742,-0.1875 z m 10.0332,5.63672 c 0.225,0.029 0.663,0.16434 1.4082,0.46484 c 0.6409,1.2516 -2.3833,-0.59038 -1.4082,-0.46484 z"
         style="fill:#000000" />
    </g>
    <path
       style="fill:#e0a272;fill-opacity:1"
       d="m 1117.9008,734.11277 c -2.858,2.67574 -4.1665,11.45744 -10.105,6.08363 c 1.5615,3.4368 4.3173,16.41396 6.4243,6.64037 c 1.0457,-4.1965 3.3189,-8.6617 3.6807,-12.724 z m 15.465,11.93502 c -4.9638,4.27702 -9.0383,7.73856 -0.6925,3.58854 c 3.1287,1.1358 0.8859,-2.59632 0.6925,-3.58854 z m -0.6079,5.39548 c -2.9993,1.49833 -9.5821,5.46773 -0.7833,2.40517 c 1.4792,-0.14286 4.0101,-2.42619 0.7833,-2.40517 z m -35.2155,2.13269 c -9.2101,7.78341 6.3892,3.5669 0,0 z m 26.8464,1.1266 c -7.8379,5.08492 1.5294,0.23416 0,0 z m 28.7012,97.54215 c -5.2732,-3.63086 -4.6024,-18.11731 -0.5707,-5.7579 c 0.55,1.46631 1.7917,2.46691 2.4877,3.83831 m 3.4794,3.45317 c -8.7678,-9.30575 -8.5879,-22.79405 -5.7294,-34.47799 c 1.1841,-8.40419 0.6418,-21.32048 -7.5908,-10.37223 c 6.012,-4.70976 8.1541,-10.28229 5.6908,-17.67975 c 1.6609,-9.81072 -11.3267,11.08084 -4.4587,-1.49986 c 4.0581,-5.72111 -10.8105,-5.45401 -7.3538,-14.44146 c 0.012,-5.3864 3.0246,-19.74367 -3.1155,-8.01354 c -8.1676,6.88499 -17.4511,0.45137 -22.8324,-4.66576 c -1.6167,8.39703 -12.5514,10.2571 -18.1665,7.50623 c 1.4148,5.8757 5.8046,9.08523 3.7948,10.79931 c 4.6953,11.65333 20.4581,18.35632 29.3945,6.98253 c 4.7614,-3.7199 11.7978,-23.72419 8.7211,-7.30098 c 1.5017,11.89782 -21.1059,19.14843 -5.0301,26.90981 c 4.8718,6.39317 1.1987,7.08234 -3.0575,1.8565 c 1.7638,7.4106 5.4187,14.07648 4.9443,15.35832 c 1.6762,6.46459 3.0973,9.40427 5.9933,14.33275 c 0.6184,2.64036 2.2911,4.02143 4.0043,6.10812 c 3.0907,3.83584 7.3733,9.52563 14.271,8.62284 l 0.5206,-0.0248 z m 75.5857,-83.70325 c -17.7126,-0.0566 -35.325,3.05129 -53.027,1.29521 c -10.2101,0.34137 -27.797,6.06523 -25.212,18.75476 c 1.7314,10.79047 8.4473,22.3125 18.2745,26.34077 c 4.9505,1.8945 10.8651,4.33589 14.1283,7.30376 c 3.3415,3.67117 10.0366,11.62839 5.8425,0.37991 c 4.0729,5.08797 2.0445,11.14659 8.9532,12.42945 c 6.827,2.75812 13.6484,5.25187 20.3337,8.21557 c -1.9086,-0.8131 15.9665,10.17152 7.119,0.72378 c -9.4066,-14.59154 -17.6796,-30.62469 -30.6252,-42.36021 c -5.733,-1.73766 -15.891,-10e-4 -18.9744,-0.30877 c 8.3645,-9.09635 22.0897,-5.22587 32.9905,-7.70339 c 12.3569,-1.6385 24.4921,-5.09236 37.0282,-4.94888 c 6.4194,3.43139 13.7474,17.00825 14.5373,1.9326 c 4.5039,-6.40475 14.5718,-10.42015 2.5458,-14.38024 c -8.6025,-8.95555 -20.1312,-7.80428 -31.7205,-7.67488 l -2.1932,4.4e-4 l 0,0 z m -112.8963,31.80868 c -4.831,12.08588 -16.639,22.93075 -12.6438,37.06514 c 2.7233,11.66074 9.522,22.86873 6.4879,35.28133 c -2.0353,8.24131 -2.2107,14.62549 7.2147,16.56105 c 6.2444,4.19463 7.1724,13.50907 0.6421,3.80672 c -10.2634,-12.31708 -1.8227,11.68945 -10.7474,15.38198 c -10.3302,7.11138 8.9311,5.12471 13.139,8.76413 c 9.7505,-14.43463 11.4037,-32.26227 12.2153,-49.1976 c -7.0594,-4.70764 -7.784,-13.37118 -7.4987,-21.34258 c -1.411,-4.32064 -13.1788,-6.87155 -2.0861,-6.11698 c 2.9934,-8.23995 -4.6122,-23.53702 -5.3659,-34.20089 c -0.4559,-1.94846 -0.1467,-4.36922 -1.3571,-6.0023 z m 105.7663,102.0765 c -24.7585,4.89855 -49.2549,11.90388 -71.5698,23.96529 c -9.062,6.55499 -24.5318,6.51446 -26.8788,19.70219 c -4.0629,11.16868 -4.3594,23.55779 -10.632,34.03506 c -3.5466,8.75149 -14.7649,22.21614 0.3292,26.81934 c 8.0618,2.6521 24.6974,13.1938 27.524,-0.8078 c 4.5027,-12.76689 -0.044,-27.72364 8.6379,-39.29535 c 3.567,-9.08446 16.3362,-3.9902 26.8502,-6.64247 c 20.9105,-1.15009 43.0218,-2.64475 61.5952,-13.03295 c 9.1599,-6.7944 6.2377,-20.4419 1.9749,-29.41168 c -3.3998,-7.26427 -10.0525,-13.2013 -17.8308,-15.33163 z m 20.168,47.32176 c -15.1352,7.46921 -31.5574,11.91597 -48.377,13.37737 c -2.1471,15.1713 2.9098,30.65081 7.2743,45.13265 c 2.2253,12.125 11.4782,20.4124 24.1667,17.0137 c 6.455,0.3216 17.5682,-0.861 15.4774,1.6211 c 11.5837,4.7728 26.8198,3.481 27.2305,-12.0185 c 5.6261,-14.3616 -9.5078,-18.58084 -20.5268,-19.43466 c -6.8576,-2.99291 -17.067,4.44986 -18.8421,0.81179 c -0.7667,-11.26685 8.5621,-20.51787 10.0167,-31.68255 c 1.0737,-4.89378 2.9794,-10.12245 3.5803,-14.8209 z"
       id="path7756" />
    <path
       style="fill:#00ffff"
       d="m 1157.7358,1015.3821 c 0,4e-4 -0.01,9e-4 -0.01,0 l 0,9e-4 c -10e-5,-1e-4 0.012,0 0.01,0 z"
       id="path4186" />
    <path
       style="fill:#00ffff"
       d="m 1157.7218,1015.3856 c -0.01,0 -0.014,0 -0.015,0 c 0,9e-4 3e-4,0 0,0 c 0.018,0 0.017,-0.01 0.019,-0.01 z"
       id="path7804" />
    <path
       style="fill:#000000"
       d="m 1089.75,924.23803 l 0.019,0.0751 l 0.033,-0.0489 c -0.014,-0.007 -0.033,-0.0166 -0.053,-0.0262 z"
       id="path3363" />
    <path
       style="fill:#ffffff"
       d="m 1095.1862,752.03277 c 0.2593,0 0.3173,0.51064 0.1397,1.22966 c -0.3518,1.42452 -1.1378,2.42081 -1.1284,1.43052 c 0.012,-1.22355 0.5454,-2.66018 0.9887,-2.66018 z"
       id="path7514" />
    <path
       style="fill:#ffffff"
       d="m 1102.0418,756.06584 c 0.7894,0.003 1.5397,0.13391 1.5397,0.38951 c 0,0.41125 -3.0038,0.92016 -3.3554,0.56854 c -0.1085,-0.10877 -0.091,-0.37089 0.04,-0.58252 c 0.1576,-0.25495 0.9861,-0.37874 1.7755,-0.37553 z"
       id="path7466" />
    <path
       style="fill:#ffffff"
       d="m 1127.4306,756.69377 c 0.2605,0.005 0.2582,0.30931 0.08,1.12311 c -0.1958,0.89164 -0.039,1.6929 0.4891,2.49949 c 0.6511,0.9937 1.0011,1.14278 2.1475,0.91351 c 1.2011,-0.24022 1.2878,-0.19486 0.7048,0.37292 c -1.3581,1.3226 -5.9453,1.16007 -8.7683,-0.31091 c -0.7681,-0.40023 -1.5227,-0.63541 -1.6768,-0.52226 c -0.1542,0.11316 -0.1899,0.0815 -0.079,-0.0707 c 0.1112,-0.15224 -0.1003,-0.57973 -0.4708,-0.95019 c -0.5999,-0.59998 -0.5857,-0.75317 0.1328,-1.40083 c 0.4437,-0.3999 1.4311,-0.72698 2.1947,-0.72662 c 1.2062,4.5e-4 1.3931,0.16129 1.4235,1.22442 c 0.049,1.72249 0.4095,2.13007 1.8838,2.13007 c 1.6622,0 1.991,-0.57222 0.8978,-1.56153 c -0.9573,-0.86634 -0.6267,-2.12787 0.6899,-2.63311 c 0.1486,-0.057 0.2643,-0.089 0.3511,-0.0873 z"
       id="path7464" />
    <path
       style="fill:#ffffff"
       d="m 1102.3772,758.33913 c 0.2819,0.018 0.3229,0.44483 0.1528,1.29517 c -0.4329,2.16446 0.3396,3.57718 1.9563,3.57718 c 1.989,0 4.0033,-1.16863 4.0654,-2.35888 c 0.043,-0.81629 0.09,-0.84701 0.2637,-0.17205 c 0.2421,0.93837 -1.2692,2.74525 -3.0881,3.6916 c -1.4881,0.7743 -2.7582,0.76879 -4.9702,-0.0201 c -2.0932,-0.74656 -4.301,-2.50654 -4.323,-3.44619 c -0.011,-0.45882 1.9535,0.12181 2.4523,0.72487 c 0.8193,0.99044 2.2543,1.53677 2.9301,1.11525 c 0.5339,-0.33303 0.4717,-0.52749 -0.359,-1.11263 c -1.2196,-0.85913 -1.2748,-1.61775 -0.1886,-2.6008 c 0.5243,-0.47444 0.889,-0.70744 1.1083,-0.69343 z"
       id="path7454" />
    <path
       style="fill:#000000"
       d="m 1138.529,766.82535 c -0.3997,0.0242 -0.9573,0.46941 -1.8663,1.41656 c -1.3869,1.44489 -4.9108,6.32064 -4.9108,6.79456 c 0,0.69527 1.26,-0.16436 2.3475,-1.60083 c 0.6765,-0.89362 1.615,-1.72494 2.0855,-1.84798 c 0.9944,-0.26004 3.3273,-3.73283 2.9344,-4.36843 c -0.1677,-0.27144 -0.3505,-0.40839 -0.5903,-0.39388 z"
       id="path7358" />
    <path
       style="fill:#000000"
       d="m 1138.4801,767.20001 c 0.06,0.003 0.1247,0.0321 0.1799,0.0873 c 0.1104,0.11041 -0.4932,1.0774 -1.3415,2.14928 c -1.8225,2.3032 -2.0796,2.047 -0.331,-0.33012 c 0.6664,-0.90584 1.2701,-1.73066 1.3415,-1.83314 c 0.036,-0.0512 0.091,-0.076 0.1511,-0.0734 z"
       id="path7352" />
    <path
       style="fill:#000000"
       d="m 1108.922,770.8331 c -0.1989,-0.0152 -0.3625,0.19767 -0.6769,0.62443 c -0.911,1.23673 -0.7922,2.48848 0.352,3.70644 c 0.8089,0.86103 1.3648,1.03107 3.0182,0.92312 c 1.6609,-0.10843 2.027,-0.28864 2.027,-0.99822 c 0,-0.60154 -0.4436,-0.98028 -1.4532,-1.24189 c -0.7993,-0.20712 -1.4532,-0.58048 -1.4532,-0.82967 c 0,-0.24918 -0.4166,-0.89794 -0.9258,-1.441 c -0.4551,-0.48548 -0.6892,-0.72804 -0.8881,-0.74321 z"
       id="path7326" />
    <path
       style="fill:#000000"
       d="m 1116.072,771.70731 c -1.15,0 -2.1174,0.9125 -1.8899,1.78247 c 0.2649,1.01313 1.0283,1.16463 1.8296,0.36331 c 0.6648,-0.66472 0.7064,-2.14578 0.06,-2.14578 z"
       id="path7320" />
    <path
       style="fill:#d40000"
       d="m 1112.2241,779.48699 c -1.3352,0.0107 -2.4438,0.10979 -2.9903,0.30741 c -1.9016,0.68763 -2.5894,2.13694 -1.7624,3.71518 c 0.3417,0.65227 0.5175,1.35368 0.3912,1.55803 c -0.2991,0.48409 1.4458,2.1128 2.8733,2.68202 c 4.3567,1.73725 10.5318,-1.69899 10.1971,-5.67407 c -0.1218,-1.44648 -0.3018,-1.65336 -1.7013,-1.95889 c -1.9282,-0.42098 -4.7824,-0.64757 -7.0076,-0.62968 z"
       id="path7264" />
    <path
       style="fill:#ffffff"
       d="m 1113.6423,781.99172 c 3.1459,0 4.2603,0.45046 2.6463,1.06984 c -0.955,0.36647 -5.3294,0.3465 -5.702,-0.0262 c -0.7851,-0.78504 -0.028,-1.04363 3.0557,-1.04363 z"
       id="path7242" />
    <path
       style="fill:#000000"
       d="m 1161.041,792.66477 c -0.1073,0.007 -0.1539,0.0475 -0.1284,0.12402 c 0.2124,0.63718 4.3861,2.81275 7.6522,3.98853 c 1.272,0.45791 2.6144,0.8383 2.9833,0.84626 c 0.8626,0.0186 -1.9644,-1.70916 -4.0165,-2.45495 c -0.8654,-0.3145 -2.749,-1.09968 -4.1859,-1.74493 c -1.114,-0.50021 -1.9829,-0.77971 -2.3047,-0.75893 z"
       id="path7194" />
    <path
       style="fill:#000000"
       d="m 1164.2252,795.90922 c -1.1601,0.0792 3.1766,2.66348 6.6365,3.7571 c 2.3148,0.73168 2.3736,0.73692 2.6785,0.24366 c 0.141,-0.22823 -0.1994,-0.55475 -0.7563,-0.72575 c -0.557,-0.171 -2.2341,-0.87759 -3.7274,-1.56938 c -1.4933,-0.6918 -3.2845,-1.40013 -3.9798,-1.57463 c -0.4087,-0.10257 -0.6858,-0.14232 -0.8515,-0.131 z"
       id="path7178" />
    <path
       style="fill:#000000"
       d="m 1141.6049,807.08793 c -0.085,-0.007 -0.1833,4.1e-4 -0.2952,0.0227 c -0.8282,0.16492 -3.5026,7.23759 -3.117,8.24255 c 0.4933,1.28539 1.5748,0.61391 2.0594,-1.27856 c 0.2676,-1.04521 0.7787,-2.79122 1.1353,-3.88024 c 0.7316,-2.23352 0.8095,-3.05536 0.2175,-3.10646 z"
       id="path7074" />
    <path
       style="fill:#000000"
       d="m 1142.8887,945.91533 c -0.2921,-0.0133 -0.6793,0.18862 -1.0603,0.60959 c -0.4333,0.48003 -0.6263,1.0945 -0.4375,1.39995 c 0.2048,0.33125 0.1494,0.42904 -0.1406,0.24978 c -0.2622,-0.16204 -1.6007,0.98609 -2.9746,2.55102 c -2.4768,2.82109 -6.971,9.12945 -6.971,9.78487 c 0,0.76175 0.748,0.26081 1.4917,-0.99823 c 0.435,-0.73633 1.5636,-2.19515 2.5073,-3.24182 c 3.8926,-4.31732 5.966,-6.9008 6.6269,-8.25566 c 0.3848,-0.78875 0.8679,-1.33041 1.0734,-1.20346 c 0.2053,0.12695 0.3737,0.0302 0.3737,-0.21571 c 0,-0.43829 -0.197,-0.66706 -0.489,-0.68033 z"
       id="path5670" />
    <path
       style="fill:#000000"
       d="m 1142.3166,949.42178 c -0.5016,0.14173 -3.0524,2.8784 -5.012,5.40508 c -2.6862,3.46351 -5.4256,7.15887 -6.2112,8.37966 c -0.7017,1.09046 -0.7099,1.20397 -0.069,0.95806 c 0.3999,-0.15347 0.7275,-0.4276 0.7275,-0.60959 c 0,-0.18199 0.4208,-0.8151 0.9353,-1.40607 c 0.5145,-0.59098 1.3302,-1.57725 1.8131,-2.19208 c 0.8627,-1.09862 0.8693,-1.09971 0.3607,-0.0559 c -0.2847,0.58415 -1.2133,1.97256 -2.0629,3.0855 c -1.5498,2.03039 -3.2962,5.12371 -3.2662,5.78411 c 0.03,0.65149 3.7363,-4.17552 7.3613,-9.58575 c 1.7561,-2.62091 1.8506,-2.88623 0.8952,-2.51958 c -0.977,0.37491 -0.8239,-0.0914 0.4471,-1.3624 c 0.6148,-0.61483 1.1179,-1.34056 1.1179,-1.61218 c 0,-0.27163 0.2012,-0.36946 0.4471,-0.21746 c 0.246,0.15199 0.4472,-0.0215 0.4472,-0.38602 c 0,-0.36454 0.5275,-1.29053 1.1729,-2.05758 c 0.6455,-0.76705 1.0816,-1.48775 0.9685,-1.60083 c -0.014,-0.0144 -0.039,-0.0164 -0.072,-0.007 z"
       id="path5614" />
    <g
       id="g4251">
      <path
         id="rect3352"
         d="m 1267.9204,991.76183 c -3.0827,0.18388 -7.5759,0.76162 -8.9275,3.84085 c -2.3668,2.93716 1.3441,2.73184 3.5504,3.47771 c 3.619,1.50281 9.0976,1.75861 10.5343,5.93031 c 0.957,8.4969 -0.2811,18.0055 -6.3415,24.474 c -3.8852,3.0957 -9.4877,0.4188 -14.0258,0.3679 c -2.8991,0.3742 -7.816,-3.6727 -8.4615,0.7429 c -1.6321,3.0553 2.5165,5.8064 3.8658,8.2308 c 3.9183,2.6976 7.409,6.0239 11.7508,8.0626 c 3.7265,2.7718 8.2109,5.0899 12.9378,5.1237 c 4.7092,-0.5848 9.0744,-2.7754 12.327,-6.2354 c 2.6171,-1.9081 6.5405,-8.5489 9.5162,-4.174 c 2.9691,1.5257 2.1506,6.1985 2.6157,9.5412 c 0.54,4.7962 0.8262,9.7784 2.8167,14.2306 c -0.3652,3.7489 -5.9783,7.4429 -3.0535,11.5843 c 2.9022,3.8094 8.2544,1.6702 11.1211,-1.0436 c 3.2025,-3.1291 8.3528,-5.9975 8.4061,-10.9741 c -1.1677,-4.6267 0.087,-9.4457 0.4506,-14.1094 c 0.8532,-2.1573 0.869,-5.2293 2.2934,-7.6862 c 1.1707,-0.9545 5.4981,5.008 6.3611,-0.087 c 2.1134,-3.4441 1.9199,-7.4704 -1.0432,-10.3685 c -1.6925,-3.1494 -3.632,-6.2598 -6.8733,-7.831 c -5.3089,-1.5391 -11.2562,0.9243 -16.3929,-1.4312 c -4.6731,-2.3486 -2.8145,-7.9757 -3.8088,-12.1189 c -0.1222,-3.7399 -3.1184,-8.0386 -5.2678,-9.8559 c -1.3449,-0.717 -4.8904,-1.73337 -5.3658,-1.7083 c -2.9587,0.3315 -7.5989,-1.84699 -10.0807,-4.9642 c -2.4792,-2.05997 -5.6795,-3.16593 -8.9047,-3.01897 z m -22.1766,35.28537 c -0.8868,1.2073 2.1819,-0.3238 0,0 z"
         style="color:#000000;clip-rule:nonzero;display:inline;overflow:visible;visibility:visible;opacity:1;isolation:auto;mix-blend-mode:normal;color-interpolation:sRGB;color-interpolation-filters:linearRGB;solid-color:#000000;solid-opacity:1;fill:#ff2a2a;fill-opacity:1;fill-rule:nonzero;stroke:#000000;stroke-width:2.23574281;stroke-linecap:butt;stroke-linejoin:miter;stroke-miterlimit:4;stroke-dasharray:none;stroke-dashoffset:0;stroke-opacity:1;marker:none;color-rendering:auto;image-rendering:auto;shape-rendering:auto;text-rendering:auto;enable-background:accumulate" />
      <path
         id="path3458"
         d="m 1271.5663,992.12957 c -3.6289,0.92626 -7.1425,1.22575 -10.668,1.34961 c -0.8294,0.52724 -1.5072,1.21402 -1.9062,2.12304 c -0.3988,0.49486 -0.6132,0.89444 -0.7031,1.23047 c 8.6104,1.47237 18.7045,2.08696 18.1211,13.52151 c -0.4283,8.9871 -2.9863,16.2215 -8.209,19.8867 c -7.3375,1.6044 -13.1331,1.1371 -20.2364,-0.9453 c -0.5436,-0.3005 -1.1241,-0.5469 -1.7226,-0.7676 c -1.0075,0.022 -1.7675,0.5181 -1.9942,2.0684 c -0.153,0.2864 -0.2403,0.5685 -0.2988,0.8496 c 0.6271,0.2522 1.1478,0.5326 1.5078,0.8554 c 1.7214,4.9372 8.0167,9.2102 15.2813,14.0118 c 6.5671,7.1426 13.4381,6.0627 20.0215,2.9609 c 1.5991,-0.9539 3.0761,-2.1186 4.3711,-3.4961 c 2.6115,-1.904 6.5227,-8.5181 9.496,-4.1992 c 0.8358,-0.3956 1.6629,-0.755 2.4668,-1.0293 c 4.2541,4.5767 3.0486,9.7978 3.5528,16.3594 c 2.2239,3.5837 2.5299,6.3947 2.1426,8.7011 c -0.2557,-0.9079 -0.529,-1.4531 -0.1309,0.6309 c -0.6187,2.6984 -2.0956,4.6868 -2.25,6.4297 c -1.6907,2.3787 -1.8216,4.0623 -0.3301,4.9199 c -0.027,-0.3396 0.1681,-0.5414 0.8477,0.1797 c -0.019,0.06 -0.041,0.1 -0.061,0.1484 c 0.927,0.2818 2.2136,0.3766 3.8691,0.2715 c 1.2863,-0.576 2.4811,-1.394 3.4121,-2.2754 c 3.2025,-3.1291 8.353,-5.996 8.4063,-10.9726 c -1.1677,-4.6267 0.088,-9.4457 0.4511,-14.1094 c 0.8532,-2.1573 0.8686,-5.2306 2.293,-7.6875 c 0.7247,-0.5908 2.6572,1.4654 4.2305,1.9121 c 0.2421,-0.01 0.5098,0.024 0.7773,0.053 c 0.6183,-0.1075 1.1177,-0.6583 1.3536,-2.0508 c 2.1134,-3.4441 1.9201,-7.471 -1.043,-10.3691 c -1.0498,-1.9534 -2.196,-3.8897 -3.6875,-5.4551 c -2.3116,-1.2006 -4.9245,-2.1463 -7.5684,-2.9121 c -4.0596,-0.02 -8.2524,0.8294 -12.0117,-0.8945 c -4.6731,-2.3486 -2.8143,-7.976 -3.8086,-12.1192 c -0.086,-2.6389 -1.6052,-5.5387 -3.2461,-7.666 c -1.2818,-1.1022 -2.6877,-2.1068 -4.1816,-3.0371 c -1.4127,-0.4726 -2.9071,-0.87706 -3.2051,-0.86134 c -2.9587,0.33154 -7.5983,-1.84568 -10.0801,-4.96289 c -1.5321,-1.273 -3.3412,-2.17853 -5.2598,-2.65234 z m 29.2988,85.78903 c -0.2988,-0.091 -0.5627,-0.1991 -0.7871,-0.3281 c 0.036,0.4449 0.4625,1.1172 0.7871,0.3281 z m -30.83,-84.37497 c 0.1083,-0.0377 0.369,-0.0118 0.8652,0.15039 c -0.1473,0.65369 -1.1904,-0.0373 -0.8652,-0.15039 z m 2.4921,1.66797 c 0.4143,-0.0174 1.196,0.53195 2.3633,2.21875 c -2.4126,0.59537 -3.2747,-2.18052 -2.3633,-2.21875 z m 3.7832,4.9375 c 0.1293,0.01 0.3627,0.4293 0.7442,1.5742 c -0.325,3.6423 -1.2056,-1.6017 -0.7442,-1.5742 z m 13.2872,2 c 0.1021,0.024 0.2515,0.1546 0.4609,0.457 c -0.4449,1.345 -0.9034,-0.5603 -0.4609,-0.457 z m -2.7129,0.918 c 8.5304,0.4309 12.3629,13.6811 8.8086,20.4648 c -3.642,9.9095 -7.6527,21.4576 -18.2286,25.0899 c -0.5217,-0.2557 -3.8814,1.4543 -3.7226,-0.6036 c 10.1934,-3.2284 -4.1231,-9.5746 -10.0918,-8.4433 c -20.8116,-1.4742 9.2218,-2.824 9.4277,-12.2559 c 5.1091,-5.3778 2.5147,-17.6882 5.1094,-22.709 c 3.1628,7.6477 19.5372,9.525 8.6973,-1.5429 z m 4.166,19.8672 c -0.4091,-0.1029 -1.89,0.4783 -5.9649,2.6679 c 4.0139,-3.0999 -5.1215,-3.9013 -5.1015,1.0469 c -10.4501,8.2048 12.959,-3.5621 1.4707,2.6641 c -14.4613,6.5858 8.2868,-1.8157 -3.2188,3.8203 c 1.6989,1.3105 8.4528,-3.3724 11.1348,-4.377 c -11.2619,3.0815 12.4415,-6.8924 1.8183,-3.8691 c -1.7549,0.2921 0.5432,-1.7818 -0.1386,-1.9531 z m -9.7949,3.1836 c 0.1367,0.025 0.3477,0.1631 0.6523,0.4863 c -0.4568,1.4504 -1.2447,-0.5933 -0.6523,-0.4863 z m 25.6132,1.6523 c 1.1557,-0.05 2.5351,0.3279 4.1446,1.3613 c 18.0736,-3.104 0.1455,6.0607 -0.1563,13.7735 c -8.3178,2.071 -0.1346,-1.7396 -2.8984,-6.0938 c 7.0513,-5.7245 1.5151,-5.4633 -1.3731,-6.4277 c -5.6836,10.4267 -5.9574,-2.3414 0.2832,-2.6133 z m -23.0507,1.5215 c 0.1653,0.03 0.3624,0.1679 0.58,0.4824 c -1.4143,1.319 -1.2964,-0.6113 -0.58,-0.4824 z m -32.9375,7.0937 c 0.2188,0.025 0.4113,0.1512 0.4629,0.4551 c -2.0081,0.3043 -1.1194,-0.531 -0.4629,-0.4551 z m 3.7226,0.4102 c 0.1649,0.05 0.1282,0.4051 -0.3555,1.3086 c -2.4534,1.1494 -0.1391,-1.4576 0.3555,-1.3086 z m 56.9141,8.666 c 0.1391,0.048 0.2919,0.3916 0.4492,1.1797 c -1.5487,6.88 -1.2006,-1.4413 -0.4492,-1.1797 z m -40.2364,3.1621 c 0.6289,-0.03 3.0119,0.271 0.2129,0.168 c -0.437,-0.1112 -0.4225,-0.1579 -0.2129,-0.168 z m 40.9903,2.8828 c 0.2107,-0.012 0.4008,0.7658 0.4629,3.0157 c -1.911,4.1625 -1.095,-2.9804 -0.4629,-3.0157 z m 0.2578,5.7676 c 0.2633,0.024 0.644,0.6761 1.1289,2.4902 c -1.6544,3.0393 -1.9187,-2.5609 -1.1289,-2.4902 z m -0.3438,3.8731 c 0.1982,0.013 0.4416,0.093 0.7383,0.2675 c -1.2361,2.8256 -2.1254,-0.36 -0.7383,-0.2675 z m -1.4043,4.2617 c 0.6479,0.066 0.7258,0.3588 -1.2285,1.0019 c -2.5152,-0.5909 0.1488,-1.1121 1.2285,-1.0019 z m -6.9218,5.5664 c 0.1021,0.024 0.2535,0.1546 0.4629,0.457 c -0.4449,1.3451 -0.9053,-0.5603 -0.4629,-0.457 z"
         style="opacity:0.25;fill:#000000" />
    </g>
    <path
       style="fill:#000000"
       d="m 1127.8991,842.08672 c -2.3654,-0.45394 -4.6372,-0.36168 -5.2112,0.21223 c -0.5098,0.50977 -0.2727,0.64302 2.069,1.15892 c 0.7026,0.15477 2.1614,1.12757 3.2418,2.16151 l 1.9692,1.85862 l -0.5235,-5.70206 z"
       id="path4302" />
    <path
       style="fill:#000000"
       d="m 1131.6686,811.76181 c 1.2229,1.372 2.3416,2.30322 2.4864,2.06894 c 0.1448,-0.23427 0.015,-1.4878 -0.2873,-2.78507 c -0.4196,-1.79812 -0.9085,-2.63458 -2.0567,-3.5213 c -0.8285,-0.63972 -2.015,-1.61602 -2.6366,-2.16937 c 0,0 -1.3521,-1.13659 -1.5362,-1.03391 c -0.125,1.26697 1.0592,4.84124 1.1636,5.79747 c -0.6455,-2.51965 2.8668,1.64324 2.8668,1.64324 z"
       id="path3372" />
    <path
       style="fill:#000000"
       d="m 1149.7309,803.6398 c -3.1993,3.3217 -4.5649,4.90386 -4.5649,5.28805 c 0,0.87544 1.0415,0.0903 3.723,-2.80603 l 3.1627,-2.77807 l -0.1218,-1.99141 z"
       id="path3368" />
    <path
       style="fill:#000000"
       d="m 1197.4718,830.17178 c -0.074,-1.45432 -0.3776,-2.40015 -1.5991,-4.06539 c -0.8733,-1.19054 -1.6807,-2.07109 -1.7947,-1.95715 c -0.114,0.11395 0.099,1.08841 0.4742,2.16501 c 0.375,1.07659 0.6837,2.5608 0.6882,3.29859 l 0.036,1.38034 c 0,0 1.0379,1.32676 1.6587,1.09521 c 0.6216,-0.23188 0.5707,-1.25399 0.537,-1.91661 z"
       id="path3364" />
    <path
       style="fill:#000000"
       d="m 1155.0067,850.3249 c 0,-0.16688 -0.255,-0.57727 -0.5624,-0.91263 c -1.234,-1.34617 -2.7117,-4.17825 -3.5649,-6.83212 c -0.7846,-2.44012 -1.8694,-2.38362 -2.0498,0.10655 c -0.1676,2.31387 1.8933,6.93801 4.2601,9.5578 l 1.4873,1.80143 l 3.9454,-0.18615 z"
       id="path4276" />
    <path
       style="fill:#000000"
       d="m 1147.8489,786.51192 c 0,0.63683 -2.7158,5.80072 -3.4593,6.57797 c -0.7426,0.7762 -0.7188,1.42179 0.052,1.42179 c 0.3397,0 1.1843,-0.75456 1.8768,-1.67681 c 0.6925,-0.92224 1.3811,-1.77741 1.5301,-1.90038 c 0.1489,-0.12296 0.7354,-0.98878 1.3038,-1.92396 l 1.2175,-1.62318 l -0.2014,-1.62168 z"
       id="path3376" />
    <path
       style="fill:#00ffff"
       d="m 1157.7358,1015.3821 c 0,4e-4 -0.01,9e-4 -0.01,0 l 0,9e-4 c -10e-5,-1e-4 0.012,0 0.01,0 z"
       id="path3395" />
    <path
       style="fill:#00ffff"
       d="m 1157.7218,1015.3856 c -0.01,0 -0.014,0 -0.015,0 c 0,9e-4 3e-4,0 0,0 c 0.018,0 0.017,-0.01 0.019,-0.01 z"
       id="path3384" />
    <path
       style="color:#000000;clip-rule:nonzero;display:inline;overflow:visible;visibility:visible;opacity:1;isolation:auto;mix-blend-mode:normal;color-interpolation:sRGB;color-interpolation-filters:linearRGB;solid-color:#000000;solid-opacity:1;fill:#ff2a2a;fill-opacity:1;fill-rule:nonzero;stroke:#000000;stroke-width:2.23574281;stroke-linecap:butt;stroke-linejoin:round;stroke-miterlimit:4;stroke-dasharray:none;stroke-dashoffset:0;stroke-opacity:1;color-rendering:auto;image-rendering:auto;shape-rendering:auto;text-rendering:auto;enable-background:accumulate"
       d="m 1088.8086,687.87112 c -2.5281,5.49993 -3.2073,18.13618 -3.1729,25.37917 c 4.9408,15.27997 -2.3006,42.61228 8.1072,54.75474 c 12.4022,7.01854 17.2862,0.94552 18.6109,-5.88192 c 1.3246,6.82736 5.072,9.81573 18.9422,6.5466 c 16.277,-3.8364 1.4241,-39.19952 4.9548,-55.18449 c -0.4355,-7.243 1.7053,-12.59465 2.4672,-24.20453 c -3.5442,4.0141 -8.3339,13.96099 -11.0442,20.67974 c -7.0736,17.53519 -14.1312,33.30191 -15.4685,44.56901 c -2.2671,-11.15665 -12.1006,-26.58157 -19.1672,-44.09915 c -2.7103,-6.71875 -1.8604,-18.31006 -4.2295,-22.55917 z m 43.7096,58.51445 c 7.7895,11.08151 -2.144,21.57945 -13.1603,12.68959 z m -35.2496,7.04958 c 29.7394,14.86973 -10.6427,14.72829 0,0 z"
       id="path4250" />
    <g
       id="g4245">
      <path
         id="path3361"
         d="m 1109.4787,990.5933 c -5.4362,0.86276 -8.4366,6.15008 -8.6198,11.1971 c 0.029,5.2061 -3.8706,9.5534 -5.6669,14.5639 c -2.3191,5.4086 -7.0974,9.479 -9.3295,14.7946 c 1.3147,6.9802 5.5474,13.1306 9.6708,18.7597 c -2.0988,7.8778 -6.0446,15.0739 -9.5563,22.3588 c -3.1734,5.3752 -6.8507,10.5725 -10.7813,15.5251 c -4.5037,6.3963 -9.3111,12.8665 -11.7824,20.3601 c 2.766,6.1847 -5.659,-1.2251 -8.9132,3.1226 c -5.3518,3.2236 -4.1516,12.9051 1.6529,13.3366 c 7.5847,1.3304 15.9603,2.0904 23.1574,-1.1366 c 5.1732,-3.5921 3.3406,-11.498 8.7191,-15.2888 c 1.1061,-1.818 6.8525,-8.3109 3.6247,-2.3506 c -2.0634,3.6947 -7.3809,12.8849 1.2499,11.0428 c 6.165,0.3533 5.8985,-8.2963 10.4555,-11.4387 c 3.5722,-3.669 5.0486,-9.0193 2.7211,-13.9922 c -3.4539,-4.7916 5.6774,-7.6922 1.0734,-12.5022 c 1.1995,-5.9065 7.0349,-9.5246 9.6866,-14.7906 c 3.2084,-5.3488 11.7432,-1.8164 16.8782,-5.3238 c 3.8644,-2.7561 12.5817,-2.2517 11.1845,-8.5003 c -0.121,-8.6603 3.0991,-16.9392 6.7243,-24.6434 c 1.8458,-3.4794 3.6151,-7.4989 6.13,-10.3595 c 0.5986,-2.9314 1.83,-6.6433 -0.6673,-9.3202 c -2.2461,-3.172 -6.3105,-3.1958 -9.6539,-4.42 c -1.4697,5.8618 -3.4439,16.1476 -11.7065,12.7611 c -7.7092,-1.3829 -15.432,-4.1143 -21.8192,-8.6871 c -6.915,-2.9739 -2.0212,-9.75641 -1.1302,-14.1122 c -1.1006,-0.31874 -2.2013,-0.63747 -3.3019,-0.9562 z m 48.2571,24.7888 c -0.014,-0.012 -0.014,0.018 0,0 z m -0.014,0 c -0.01,-0.01 -0.042,0.024 0,0 z"
         style="color:#000000;clip-rule:nonzero;display:inline;overflow:visible;visibility:visible;opacity:1;isolation:auto;mix-blend-mode:normal;color-interpolation:sRGB;color-interpolation-filters:linearRGB;solid-color:#000000;solid-opacity:1;fill:#ff2a2a;fill-opacity:1;fill-rule:nonzero;stroke:#000000;stroke-width:2.23574281;stroke-linecap:butt;stroke-linejoin:miter;stroke-miterlimit:4;stroke-dasharray:none;stroke-dashoffset:0;stroke-opacity:1;color-rendering:auto;image-rendering:auto;shape-rendering:auto;text-rendering:auto;enable-background:accumulate" />
      <path
         id="path3361-0"
         d="m 1109.4784,990.59246 c -0.331,0.0525 -0.652,0.12274 -0.9648,0.20703 c -1.2591,1.17736 -2.6199,2.22491 -4.0723,3.16016 c -1.4419,2.38858 -2.5588,5.31269 -3.6055,8.39845 c -0.1275,2.609 -1.2056,5.0155 -2.4531,7.4101 c -1.1131,3.3048 -2.3314,6.5329 -3.9434,9.2989 c 0.078,0.048 0.1572,0.1182 0.2383,0.2441 c -0.5328,0.8209 -0.8219,0.9905 -0.9394,0.8789 c -0.4035,0.616 -0.8224,1.2121 -1.2754,1.7676 c -2.1301,1.0809 -8.8306,11.7701 -3.2188,16.6504 c 2.4226,3.2606 4.308,6.5994 5.2442,9.8555 c 0.3483,0.4835 0.6963,0.9693 1.0449,1.4453 c -0.1407,0.5282 -0.3101,1.046 -0.4668,1.5683 c 0.3286,3.6066 -0.7422,7.0419 -3.8906,10.0664 c -0.022,0.047 -0.045,0.093 -0.066,0.1407 c -2.2243,7.5584 -5.5128,13.115 -10.8848,20.0879 c -4.5379,6.897 -6.8492,8.2173 -12.1543,18.8164 c -7.7822,15.2723 -1.2099,4.5269 2.8438,-3.0391 c 7.1732,-9.6344 12.739,-24.6644 26.7109,-20 c 12.1896,-6.7669 -12.7886,-4.0774 -5.4101,-6.4766 c 6.6105,-2.6519 23.7977,-6.7321 13.7832,1.2637 c -2.0279,11.2388 -8.3313,5.7789 -16.9356,10.0742 c 14.4089,1.2609 4.0701,8.6068 -1.8144,11.6406 c -12.8789,8.9608 9.5548,1.5123 4.7714,5.8965 c -15.3126,-3.2655 -17.7763,14.3392 -29.3007,14.5586 c -11.0641,5.1018 2.0971,-6.3061 -9.2657,-0.4082 c -1.3399,2.5026 -2.0286,4.0021 -2.3086,4.8985 c 0.049,0.3946 0.1295,0.7798 0.2305,1.1562 c 1.1156,-0.042 4.2588,-2.666 3.7305,1.7715 c -0.5753,0.9733 -0.7728,1.7028 -0.586,2.2773 c 0.4959,0.2214 1.0383,0.366 1.6329,0.4102 c 7.5847,1.3304 15.9611,2.0903 23.1582,-1.1367 c 0.052,-0.036 0.092,-0.079 0.1425,-0.1153 c -4.4356,0.9985 0.8945,-4.6939 4.8907,-9.8086 c 0.6813,-1.9177 1.6097,-3.7074 3.3086,-5.0585 c 0,0 0.01,-0.01 0.01,-0.014 c 0.2385,-0.2631 0.4111,-0.4329 0.6289,-0.6661 c 1.3441,-1.9499 5.5051,-6.5953 3.9941,-3.2382 c 1.3447,0.4608 -4.04,9.8839 -2.5977,6.7402 c -2.0535,2.7916 -1.1535,4.8715 0.7286,5.7773 c 0.6574,0.062 1.4744,0 2.4902,-0.2129 c 3.1363,0.1798 4.6073,-1.975 5.8965,-4.5449 c 0.04,-0.2055 0.079,-0.4119 0.1054,-0.6308 c 0.1033,-0.062 0.1931,-0.1283 0.293,-0.1914 c 1.0915,-2.271 2.1634,-4.6954 4.1602,-6.0723 c 0.4879,-0.5012 0.9325,-1.037 1.3379,-1.5957 c 1.0572,-4.7799 -0.2612,-10.1057 0.6054,-14.332 c -0.1497,-1.5684 0.8535,-2.9593 1.7754,-4.3536 c -2.4779,-3.715 0.3014,-10.3038 7.1758,-17.1972 c 0.8133,-2.3766 2.1039,-4.0067 3.7109,-5.1641 c 0.6699,-0.5949 1.455,-1.0009 2.3164,-1.2891 c 3.7753,-1.5909 8.5856,-1.7037 13.1622,-2.5175 c 0.09,-0.056 0.1869,-0.1 0.2753,-0.1602 c 2.2422,-1.5991 6.1093,-2.1071 8.6954,-3.4668 c 0.4018,-0.3295 0.7947,-0.6768 1.166,-1.0664 c -0.6104,-5.0539 0.7852,-10.1558 2.875,-15.2266 c 1.2605,-4.617 3.1515,-9.0892 5.1718,-13.3828 c 1.3428,-2.5312 2.6483,-5.3442 4.2266,-7.7929 c 0.6344,-2.1037 1.0437,-4.1787 1.1328,-6.2207 c -0.032,0.059 -0.049,0.1022 -0.086,0.166 c -2.8155,0.4615 -0.8092,-1.4277 0.096,-1.5254 c -0.058,-1.8925 -0.4142,-3.7552 -1.1718,-5.5801 c -1.7858,0.031 -3.0491,-0.6615 -3.9004,-1.8867 c -1.0122,-0.2876 -2.0507,-0.5301 -3.0625,-0.8125 c -0.048,1.9997 -0.079,3.8846 -0.094,5.4394 c 10.6541,4.1504 -5.8489,6.5073 -4.6875,7.0997 c -1.3002,0.1701 -2.6329,0.252 -3.9805,0.2734 c -0.8944,0.2267 -1.905,0.2267 -3.0527,-0.064 c -8.8538,-0.5629 -18.1029,-4.123 -24.7461,-10.0293 c -0.3383,-0.2503 -0.6249,-0.5157 -0.8692,-0.7949 c -0.6824,-0.6513 -1.3446,-1.3221 -1.9609,-2.0254 c 0.3955,-3.65918 1.4598,-7.13133 2.8301,-10.52345 c -0.9406,-0.27239 -1.8818,-0.54599 -2.8223,-0.81836 z m 47.5176,19.72264 c 0.014,0.4513 0.01,0.9046 -0.01,1.3594 c 0.5863,-1.0698 0.4181,-1.4035 0.01,-1.3594 z m -62.5567,8.752 c -0.521,-0.323 -0.9238,0.9043 -0.7011,1.1211 c 0.2396,-0.366 0.477,-0.7366 0.7011,-1.1211 z m 13.9044,-26.06839 c 0.5032,6.64133 -5.1523,0.43667 0,0 z m -1.92,10.34379 c 0.5577,0.1097 1.3683,1.1882 2.5313,3.6757 c 6.0602,3.6427 16.0668,9.247 21.5605,9.9668 c 7.597,2.1658 16.4508,2.5818 23.7168,-2.3496 c -3.3189,3.8611 -12.1518,15.2576 -16.9922,23.0352 c 2.176,3.9293 -0.7281,8.018 3.17,8.6308 c 1.8853,-2.4169 2.4483,-0.4498 1.6718,2.4825 c -0.2111,0.1 -0.4814,0.3906 -0.7676,0.9961 c 0.1871,0.01 0.3414,-0.01 0.4805,-0.037 c -1.4471,4.2019 -5.3905,9.5367 -12.0254,7.6269 c -6.794,1.3873 -13.8282,0.2816 -20.3652,-1.7734 c -8.8654,-1.1488 -23.1604,-18.8032 -18.7383,-20.916 c 5.9855,0.6514 13.2401,-8.7246 14.9102,-15.502 c 0.089,-4.2636 -1.1442,-16.2278 0.8476,-15.8359 z m -3.6875,0.8789 c 0.1736,-0.021 0.4232,0.026 0.7656,0.1894 c -0.8333,1.2781 -1.5177,-0.097 -0.7656,-0.1894 z m 7.2598,1.9961 c 0.1356,0.026 0.3124,0.1602 0.5293,0.4648 c -0.94,1.3198 -1.1168,-0.5783 -0.5293,-0.4648 z m 46.1406,2.2129 c 0.1196,0.032 0.2423,0.1809 0.3477,0.5156 c -1.3202,1.4006 -0.8659,-0.6537 -0.3477,-0.5156 z m -8.6582,0.2304 c -0.5053,-0.113 -1.9127,0.6976 -2.707,2.7715 c 2.8156,-1.6218 3.2123,-2.6585 2.707,-2.7715 z m -30.0254,3.3242 c -0.1875,0.05 -0.3183,0.2703 -0.3183,0.7598 c 3.0147,1.9901 1.1309,-0.9774 0.3183,-0.7598 z m -13.0371,0.1172 c 0.061,0.035 0.056,0.2331 -0.066,0.6914 c -1.67,2.0483 -0.1957,-0.8452 0.066,-0.6914 z m -3.3008,6.7852 c 0.2071,0.027 0.4753,0.1625 0.8067,0.4726 c -1.436,1.344 -1.7041,-0.5881 -0.8067,-0.4726 z m -1.9179,3.6387 c 0.1021,0.024 0.2515,0.1546 0.4609,0.457 c -0.4449,1.3451 -0.9034,-0.5604 -0.4609,-0.457 z m 47.8828,2.7324 c 0.1403,-0.021 0.3297,0.026 0.5742,0.1875 c -0.8586,1.2636 -1.1823,-0.096 -0.5742,-0.1875 z m -18.4492,1.9179 c -0.7106,-0.081 -2.628,0.5369 -5.8809,2.629 c 1.9096,-0.163 3.3972,-0.578 4.4394,-1.0313 c -3.9518,2.1496 -8.6709,5.9559 -12.4746,6.7539 c -16.7735,6.5261 6.0561,3.0372 -7.0781,9.5527 c 2.2332,-0.4583 4.885,-0.769 6.4356,-2.6289 c -5.0013,7.6082 12.0051,-1.6663 15.584,-4.9804 c -6.149,2.2952 -1.5854,-3.0436 -2.8594,-2.7012 c -0.8958,-1.7887 4.862,-3.3666 7.5293,-5.5918 c -1.1954,-2.5331 -3.518,-2.1989 -6.3028,-0.8281 c 0.9554,-0.5745 1.1878,-1.1076 0.6075,-1.1739 z m 3.5703,1.2989 c -2.5052,2.7233 -3.686,1.8162 0,0 z m 1.5,2.834 c -0.1578,0.038 -0.3503,0.2547 -0.5371,0.7832 c 1.1786,0.5855 1.0105,-0.8975 0.5371,-0.7832 z m -6.9981,0.455 c -1.8063,2.1501 -2.6398,-0.063 0,0 z m 5.459,0.7071 c -0.2071,0.027 -0.4772,0.1625 -0.8086,0.4726 c 1.436,1.3439 1.7061,-0.5881 0.8086,-0.4726 z m -1.8398,0.498 c -0.2816,0.025 -0.6517,0.274 -0.9629,0.9492 c 1.777,0.025 1.5823,-1.0046 0.9629,-0.9492 z m -6,1.7442 c 0.1575,0.048 0.1543,0.3772 -0.2129,1.2109 c -2.1729,1.0412 -0.2596,-1.3545 0.2129,-1.2109 z m -5.5469,0.916 c 0.1653,0.03 0.3625,0.1699 0.5801,0.4843 c -1.4143,1.3191 -1.2965,-0.6132 -0.5801,-0.4843 z m 2.791,1.1582 c 0.2966,0 0.115,0.3007 -1.0801,1.1367 c -4.9983,1.455 0.1904,-1.1523 1.0801,-1.1367 z m -7.957,1.3847 c 0.1061,-0.01 0.2786,0.1034 0.539,0.4043 c -0.2168,1.8131 -0.9987,-0.3792 -0.539,-0.4043 z m 11.1543,0.047 c 1.1989,-0.021 0.8924,0.5795 -4.0508,2.4219 c -4.1284,-0.6234 2.0525,-2.3865 4.0508,-2.4219 z m -12.5684,0.9082 c 0.169,0.017 0.3669,0.07 0.5938,0.17 c -1.5469,1.2918 -1.7765,-0.2921 -0.5938,-0.17 z m 4.3828,0.1954 c 0.1403,0.02 -0.091,0.3186 -1.0722,1.125 c -3.1141,1.2585 0.6513,-1.1853 1.0722,-1.125 z m 20.2852,0.4023 c -0.1356,0.026 -0.3124,0.1583 -0.5293,0.4629 c 0.9399,1.3197 1.1167,-0.5763 0.5293,-0.4629 z m -19.5352,1.0391 c 0.3224,0.016 0.5172,0.446 0.3926,1.5996 c -4.323,3.5703 -1.5438,-1.6565 -0.3926,-1.5996 z m 22.041,0.088 c 0.085,-6e-4 0.189,0.121 0.3086,0.4453 c -0.6776,1.8626 -0.6754,-0.4427 -0.3086,-0.4453 z m 2.2188,0.5215 c 0.1241,0.02 0.261,0.074 0.4043,0.1777 c -1.5774,1.2763 -1.273,-0.3147 -0.4043,-0.1777 z m -47.836,14.373 c -0.078,-0.015 -0.2018,0.177 -0.3554,0.5801 c -0.025,0.064 -0.051,0.1275 -0.076,0.1914 c 0.527,1.2419 0.708,-0.7165 0.4316,-0.7715 z m -6.3105,25.4668 c -0.2189,0.025 -0.4112,0.1512 -0.4629,0.4551 c 2.0082,0.3043 1.1195,-0.531 0.4629,-0.4551 z m 1.3027,6.3887 c -1.4375,-0.204 -12.7558,4.7083 -14.8964,9.2207 c 5.0822,-1.671 12.9335,-3.4323 14.8515,-8.8028 c 0.2535,-0.254 0.2503,-0.3888 0.045,-0.4179 z m 12.5215,2.3789 c 2.4133,0 3.2679,4.8936 2.4063,10.9961 c 0.1396,-3.15 -9.2751,-4.006 -8.3985,-4.8965 c 2.5342,-4.3291 4.5442,-6.0971 5.9922,-6.0996 z m -20.3886,1.914 c -0.8755,1.2816 -1.9695,0.5379 0,0 z m -3.3086,1.252 c 0.2071,0.027 0.4752,0.1625 0.8066,0.4726 c -1.4359,1.344 -1.704,-0.5881 -0.8066,-0.4726 z m -8.8946,4.5117 c -0.087,0.056 -0.3023,0.3273 -0.7129,0.9414 c -0.9457,2.615 1.0905,-1.1826 0.7129,-0.9414 z m -3.7949,6.7754 c -0.123,0.2769 -0.2577,0.5486 -0.375,0.8281 c 0.3053,0.397 0.439,-0.4047 0.375,-0.8281 z m 18.1523,4.1191 c 0.1084,-0.038 0.367,-0.012 0.8633,0.1504 c -0.1465,0.6543 -1.1882,-0.037 -0.8633,-0.1504 z m 12.4395,1.3243 c 1.7877,-0.1666 1.5286,3.3437 -1.6621,5.1347 c -0.401,1.5629 -2.7359,0.5393 -3.5762,0.3028 c 2.3567,-3.9147 4.1657,-5.3376 5.2383,-5.4375 z m -35.7832,0.8945 c -0.217,-0.024 -0.6974,0.017 -1.5742,0.1934 c 0.505,0.5462 2.2252,-0.1218 1.5742,-0.1934 z m -2.9492,0.4609 c -0.1523,-0.027 -0.4919,0.015 -1.1153,0.1992 c 0.3396,0.5943 1.572,-0.1168 1.1153,-0.1992 z m -0.076,9.1016 c 0.091,0.037 0.2321,0.2323 0.4336,0.6777 c -0.3183,1.9433 -0.8298,-0.8401 -0.4336,-0.6777 z m 17.3125,3.1621 c 0.1083,-0.038 0.3689,-0.011 0.8652,0.1504 c -0.1465,0.6542 -1.1902,-0.037 -0.8652,-0.1504 z m -3.418,0.4707 c 0.1403,-0.021 0.3317,0.026 0.5762,0.1875 c -0.8585,1.2635 -1.1841,-0.096 -0.5762,-0.1875 z m -2.6914,0.3945 c 0.1523,-0.028 0.4919,0.015 1.1153,0.1993 c -0.3394,0.5946 -1.5719,-0.1168 -1.1153,-0.1993 z m -5.8554,0.041 c 0.1746,0.023 0.4197,0.1546 0.7461,0.459 c -0.9429,1.3627 -1.503,-0.5606 -0.7461,-0.459 z"
         style="opacity:0.25;fill:#000000" />
    </g>
    <g
       id="g4239">
      <path
         id="path4188"
         d="m 1079.518,818.06645 c -2.8165,-0.20574 -1.9343,4.23543 -5.3959,2.78719 c -3.6574,0.70716 -9.0669,-0.78884 -11.5891,1.94158 c -0.3168,4.26798 -0.3521,8.12545 -0.983,12.40611 c 0.8176,4.25751 -2.3578,8.4873 0.3319,12.60516 c 1.452,4.83053 6.5014,6.61386 10.4427,8.88939 c 0.4188,1.6645 1.5613,3.61745 2.2932,4.93654 c -1.8207,2.84652 0.285,6.66456 1.8507,9.47969 c 6.1644,13.39433 6.2964,28.64562 12.1893,42.12282 c 1.4451,2.89736 2.5441,6.38574 6.6907,4.5852 c 6.023,-1.04515 12.4236,-2.64509 16.5291,-7.54696 c 4.6112,-4.85401 5.7296,-12.05952 5.3596,-18.506 c 0.3981,-5.85743 -6.7838,-5.38194 -9.851,-8.62896 c -3.2699,-4.42167 -7.6391,-8.26051 -9.5737,-13.58828 c -0.66,-2.36244 -2.2647,-3.63812 -3.2746,-6.2089 c -0.7171,-2.88215 -3.75,-3.97488 -4.3541,-6.60199 c 0.8011,-3.05264 -2.7238,-5.3159 -0.5179,-8.47182 c 0.1156,-2.28257 1.3285,-4.58155 -0.2023,-5.35781 c -0.1264,-3.44826 -2.2262,-6.2381 -2.0175,-10.10451 c -0.2325,-2.55913 -2.5128,-5.32434 -2.5012,-5.53958 c -1.1326,-2.51837 -1.3288,-6.69763 -3.8334,-8.29524 c -0.075,-0.83439 -0.7299,-0.96479 -1.5935,-0.90363 z"
         style="color:#000000;clip-rule:nonzero;display:inline;overflow:visible;visibility:visible;opacity:1;isolation:auto;mix-blend-mode:normal;color-interpolation:sRGB;color-interpolation-filters:linearRGB;solid-color:#000000;solid-opacity:1;fill:#ff2a2a;fill-opacity:1;fill-rule:nonzero;stroke:#000000;stroke-width:2.23574281;stroke-linecap:butt;stroke-linejoin:miter;stroke-miterlimit:4;stroke-dasharray:none;stroke-dashoffset:0;stroke-opacity:1;color-rendering:auto;image-rendering:auto;shape-rendering:auto;text-rendering:auto;enable-background:accumulate" />
      <path
         id="path3507"
         d="m 1079.4022,818.06902 c -2.6686,-0.0694 -1.8689,4.21195 -5.2793,2.78516 c -3.1046,0.60029 -7.4659,-0.37757 -10.2578,0.98047 c -0.7766,1.06063 -1.2228,2.39264 -1.5058,3.86328 c -0.1395,2.46644 -0.2837,4.90752 -0.5567,7.39843 c -0.032,0.95457 -0.078,1.90304 -0.1543,2.83008 c 0.2349,2.52617 -0.7297,5.04174 -0.8515,7.52735 c 0.8064,3.90009 4.1379,7.65497 5.0957,8.51757 c 7.5707,1.73042 9.0557,8.55327 9.457,14.9336 c 3.0843,6.33642 9.029,23.89321 10.0039,35.79492 c 2.7284,10.33866 6.2092,19.23904 17.0586,12.61133 c 0.6569,0.0458 1.2758,0.11521 1.875,0.19726 c 1.3964,-0.55417 2.7354,-1.2235 3.9805,-2.04492 c -0.2804,-0.0881 -0.5629,-0.18205 -0.8379,-0.25781 c 0.8547,-0.16381 1.6073,-0.44772 2.2871,-0.81445 c 0.7708,-0.63062 1.4976,-1.32614 2.1601,-2.11719 c 0.5109,-0.53775 0.9726,-1.10993 1.4004,-1.70117 c 2.8195,-5.4192 2.3402,-13.84877 3.959,-16.78907 c -3e-4,-0.006 4e-4,-0.0118 0,-0.0176 c 0.3981,-5.85743 -6.7824,-5.38189 -9.8496,-8.62891 c -2.6775,-3.62058 -6.0893,-6.85168 -8.3008,-10.82813 c -2.9036,-4.39687 -5.424,-9.09193 -6.5488,-12.12695 c -8.2767,2.22911 -2.7239,-7.8339 -3.4941,-16.34765 c -0.593,-5.55793 -4.9094,-23.03223 -9.6407,-25.76563 z m -6.0781,2.94141 c 0.1777,-0.0258 0.5493,0.11463 1.2031,0.57422 c -0.5289,1.07528 -1.7361,-0.49671 -1.2031,-0.57422 z m 5.7774,1.14843 c 0.9514,1.79292 -1.0203,0.42337 0,0 z m -0.1602,1.87891 c 0.072,0.005 0.2241,0.13637 0.4961,0.4707 c 0.4026,1.82403 -0.8066,-0.49406 -0.4961,-0.4707 z m -8.9394,2.51563 c 0.06,0.0355 0.056,0.23312 -0.066,0.6914 c -1.6701,2.04832 -0.1956,-0.84524 0.066,-0.6914 z m 0.9863,0.70312 c 0.1371,-0.006 0.332,0.10617 0.5957,0.41406 c -0.6982,1.85249 -1.1901,-0.38903 -0.5957,-0.41406 z m 1.8769,0.20313 c 0.1356,0.0262 0.3124,0.15832 0.5293,0.46289 c -0.94,1.31976 -1.1168,-0.57631 -0.5293,-0.46289 z m -8.416,0.0644 c 0.1046,-0.0123 0.2782,0.0847 0.5488,0.36719 c -0.1343,1.81189 -1.0019,-0.31392 -0.5488,-0.36719 z m 19.5781,5.375 c 0.1021,0.0239 0.2516,0.15459 0.461,0.45703 c -0.4448,1.34502 -0.9033,-0.56037 -0.461,-0.45703 z m -10.7246,1.16601 c 0.1736,-0.0213 0.4232,0.0258 0.7657,0.18946 c -0.8335,1.27807 -1.5178,-0.0971 -0.7657,-0.18946 z m 6.7618,0.43555 c 0.1403,-0.0211 0.3296,0.0257 0.5742,0.1875 c -0.8586,1.2636 -1.1823,-0.0961 -0.5742,-0.1875 z m 3.9941,1.04297 c 0.058,-0.044 0.3074,0.0784 0.8828,0.5293 c 0.476,1.2342 -1.0578,-0.39724 -0.8828,-0.5293 z m -14.3633,4.03711 c 0.2807,9.8e-4 0.6083,0.0385 0.9824,0.125 c -2.6238,1.5968 -2.9474,-0.13187 -0.9824,-0.125 z m 16.2188,4.72266 c 0.094,0.0384 0.159,0.36504 0.1562,1.16406 c -1.5346,3.94949 -0.5655,-1.33033 -0.1562,-1.16406 z m -5.8028,3.07812 c 0.1356,0.0262 0.3105,0.16028 0.5274,0.46484 c -0.94,1.31976 -1.1149,-0.57826 -0.5274,-0.46484 z m 2.168,1.07813 c 0.4408,0.0569 1.1426,0.5116 2.1855,1.61132 c -1.1271,5.36932 -4.0958,-1.8581 -2.1855,-1.61132 z m 4.7715,4.0625 c 0.1576,-0.0309 0.1332,0.38455 -0.2598,1.59179 c -3.1981,4.31452 -0.3033,-1.48146 0.2598,-1.59179 z m -4.3242,7.75976 c 0.1604,0.0305 0.3706,0.23262 0.6308,0.70899 c -1.0924,2.23239 -1.3262,-0.84107 -0.6308,-0.70899 z m -2.2422,1.25195 c 0.5685,-0.10467 1.3851,0.17671 2.4199,1.22071 c -3.5954,2.88407 -4.1255,-0.90668 -2.4199,-1.22071 z m 10.3554,1.51954 c 0.5886,0.0292 1.1687,1.41075 1.5821,4.92968 c 3.05,4.66092 -0.5041,11.16764 4.7129,15.76758 c 1.8797,5.17895 3.8572,10.3678 8.1738,12.65039 c -0.03,-0.72572 0.6718,-1.59189 1.1348,0.45899 c -0.024,0.0113 -0.041,0.0135 -0.064,0.0234 c 0.7023,0.26968 1.459,0.47198 2.2812,0.5918 c 2.4346,-6.82843 -11.4025,-13.87819 -7.1992,-15.87305 c 8.6974,5.59337 17.7793,13.5255 9.5176,24.20118 c -0.2687,2.37612 -2.6445,1.88633 -3.4375,0.6582 c -3.9716,-4.51466 -6.4897,-10.5412 -9.9473,-13.58594 c -2.0357,-6.24826 -3.707,-8.84206 -7.9883,-14.7832 c -2.3707,-3.04424 -0.5312,-15.12674 1.2344,-15.03906 z m 15.5391,33.83007 c -0.3715,-0.14263 -0.7292,-0.30203 -1.0703,-0.48242 c 0.018,0.43712 0.303,0.81437 1.0703,0.48242 z m -25.8594,-25.2539 c 0.1404,-0.0211 0.3297,0.0257 0.5742,0.1875 c -0.8585,1.2636 -1.1822,-0.0961 -0.5742,-0.1875 z m 16.6641,3.31054 c 0.2785,-0.0375 0.4781,0.61022 0.3574,2.60743 c -2.2955,2.05747 -1.0692,-2.51154 -0.3574,-2.60743 z m 1.7051,3.62305 c 0.376,0.0288 0.7003,0.28062 0.7695,0.93555 c -3.485,0.90287 -1.8975,-1.0218 -0.7695,-0.93555 z m -2.4864,0.32031 c 0.1061,-0.006 0.2787,0.10333 0.5391,0.4043 c -0.2168,1.81299 -0.9987,-0.37924 -0.5391,-0.4043 z"
         style="opacity:0.25;fill:#000000" />
    </g>
    <g
       id="g4263">
      <path
         id="path4224"
         d="m 1284.8186,780.81688 c -3.3193,0.19495 -6.5624,1.11317 -9.8495,1.61306 c -1.3301,1.81805 -5.2669,3.73238 -6.9798,6.33254 c -2.4875,2.44187 -3.7478,5.66738 -4.3829,9.01016 c -0.4777,2.67777 0.2758,5.35862 0.4661,8.04089 c 5.3733,4.69614 11.9572,7.82564 17.3306,12.51473 c 3.4488,3.69225 8.2562,6.50205 9.9549,11.5109 c 2.1145,3.2166 -0.5618,6.72882 -1.6563,9.79373 c -2.2804,3.66318 -1.4165,7.61329 1.9411,10.16801 c 0.4439,2.82696 2.0021,9.16071 5.771,5.07583 c 2.5835,-3.56425 3.0363,2.2474 5.8212,2.29045 c 3.616,0.29587 6.1928,2.38438 9.6627,3.23004 c 3.6895,1.18942 5.8301,-3.25552 8.2608,-5.23378 c 2.0966,-1.89657 4.6779,-5.48238 3.7314,-7.86465 c -0.6697,0.007 -2.6018,-3.90456 -3.4014,-4.87117 c 2.0144,0.85649 -1.3584,-2.69627 -1.1251,-1.25791 c -0.9208,-1.05594 -2.2075,-3.67751 -1.1609,-3.71563 c -2.0196,-2.08308 -5.1249,-2.83523 -6.8922,-5.44132 c -0.7844,-2.20253 -2.0749,-1.48533 -2.3335,-3.13964 c -1.7918,-0.70413 -1.9604,-4.38204 -3.1624,-6.33868 c -1.3221,-2.7162 -1.4965,-5.6017 -2.7171,-8.13242 c -0.9384,-2.74834 -1.3546,-5.84298 -2.639,-8.0708 c -1.3054,-3.82899 -2.962,-7.56235 -3.9982,-11.47282 c -0.4924,-1.48911 -2.2418,-3.99864 -2.8229,-6.1564 c -1.5236,-2.15405 -1.7153,-5.48788 -3.8004,-7.04235 c -1.9171,-0.69302 -3.9975,-0.81164 -6.0182,-0.84277 z"
         style="color:#000000;clip-rule:nonzero;display:inline;overflow:visible;visibility:visible;opacity:1;isolation:auto;mix-blend-mode:normal;color-interpolation:sRGB;color-interpolation-filters:linearRGB;solid-color:#000000;solid-opacity:1;fill:#ff2a2a;fill-opacity:1;fill-rule:nonzero;stroke:#000000;stroke-width:2.23574281;stroke-linecap:butt;stroke-linejoin:miter;stroke-miterlimit:4;stroke-dasharray:none;stroke-dashoffset:0;stroke-opacity:1;color-rendering:auto;image-rendering:auto;shape-rendering:auto;text-rendering:auto;enable-background:accumulate" />
      <path
         id="path3402"
         d="m 1283.1249,780.98113 c -2.7336,0.33892 -5.4307,1.03472 -8.1562,1.44922 c -1.3302,1.81805 -5.2657,3.73187 -6.9786,6.33203 c -0.8874,0.8712 -1.6124,1.84628 -2.2148,2.88672 c -0.505,2.90345 -1.2028,4.68948 -2.0684,5.65625 c -0.032,0.1559 -0.07,0.31031 -0.1,0.4668 c -0.4385,2.45809 0.1442,4.91885 0.3926,7.38086 c 1.7581,1.12548 4.1015,2.3965 6.7129,5.20117 c -0.423,-1.38492 6.4005,3.18111 11.7285,7.67578 c 0,0.10919 0.01,0.22696 0.068,0.44922 c 0.8012,0.75777 0.8772,0.56955 0.7168,0.20312 c 0.763,0.66148 1.4832,1.31721 2.1328,1.94336 c 3.092,3.58115 10.6545,10.56535 5.1934,18.99805 c -1.0042,3.57274 -0.5633,7.18444 0.8906,10.01367 c 0.067,0.0541 0.1296,0.11111 0.1992,0.16406 c 0.012,0.0778 0.035,0.18081 0.049,0.26367 c 1.3192,2.32255 3.3386,4.05728 5.8204,4.69336 c 1.3549,-1.77875 2.1228,-0.9307 2.9746,0.23047 c 0.2712,-0.025 0.5445,-0.0576 0.8222,-0.10742 c 0.5325,3.0612 8.3944,1.48532 10.8789,4.33008 c 3.0722,0.18481 5.458,-0.69029 7.1739,-2.22852 c 0.01,-0.008 0.014,-0.0153 0.022,-0.0234 c 0.3176,-0.35775 0.633,-0.70276 0.9492,-1.0254 c 2.6555,-3.31659 3.0382,-8.60142 1.2402,-13.38085 c -0.023,-0.03 -0.062,-0.0991 -0.084,-0.125 c 0.016,0.007 0.025,0.007 0.041,0.0137 c -0.1868,-0.48669 -0.3909,-0.96854 -0.623,-1.44141 c -0.3424,-0.22044 -0.6138,-0.26683 -0.543,0.16992 c -0.7358,-0.84378 -1.7015,-2.68399 -1.5273,-3.41015 c -0.6652,-0.81654 -1.421,-1.57088 -2.2559,-2.25586 c -0.8761,-0.53841 -1.7605,-1.07471 -2.5742,-1.71875 c -0.3431,-0.18146 -0.6916,-0.35554 -1.0547,-0.51367 c -1.3282,-1.51694 -2.5031,-3.12042 -3.5664,-4.78516 c -0.3722,-0.35421 -0.6547,-0.87152 -0.8984,-1.4668 c -7.7374,-13.20519 -8.8818,-30.11225 -16.9141,-43.42187 c -2.718,-0.81022 -5.5556,-1.66665 -8.4473,-2.61719 z m 3.3223,1.49805 c 0.8493,0.0193 1.3783,0.18867 1.4023,0.55859 c 3.8317,2.95236 3.1106,5.56271 4.8398,10.56836 c -3.3107,0.908 -5.6006,-5.83814 -6.3457,-6.07227 c -10.1545,-3.84028 -0.5305,3.54827 -3.7812,5.4961 c 3.0108,6.26715 4.6199,5.89508 7.5703,12.65234 c 2.1664,5.18663 8.307,-1.91941 8.8652,7.41797 c -2.1957,3.21319 5.9987,8.49063 0.7735,11.55274 c -0.087,0.0708 -3.5693,2.76947 -3.0918,1.10742 c -0.1183,-5.06556 -4.0654,-9.43197 -4.6035,-12.9375 c -2.8608,-1.50661 -2.8054,-4.84685 -7.2852,-7.05664 c 1.3443,-4.8604 -6.3972,-3.63233 -5.6582,-7.40625 c 2.9031,-3.98058 -8.4919,-11.04521 -3.9551,-13.35547 c 3.2946,-1.28978 8.7215,-2.58319 11.2696,-2.52539 z m 6.3359,12.17187 c 0.4373,-0.12294 0.9979,0.88695 1.6035,4.04883 c -1.742,3.85091 -2.4374,2.2201 -2.4902,-0.0137 c 0.9343,1.21425 0.4922,-1.3804 -0.012,-0.25 c 0,-1.69651 0.3498,-3.63093 0.8984,-3.78516 z m 2.8828,5.83399 c 0.2022,-0.0276 0.5154,0.34239 0.9473,1.46093 c -1.164,2.27814 -1.5539,-1.3782 -0.9473,-1.46093 z m -0.068,3.82617 c 0.3242,-0.0726 0.7018,0.12521 1.043,0.85937 c -2.4983,2.01846 -2.0156,-0.64157 -1.043,-0.85937 z m 0.4649,5.08594 c -0.1515,0.005 -0.3648,0.14635 -0.6289,0.53515 c 0.9781,0.64717 1.0831,-0.55161 0.6289,-0.53515 z m 5.5917,17.26562 c 0.1079,0.0382 0.2475,0.23179 0.42,0.67578 c -0.7476,1.92398 -0.8872,-0.84112 -0.42,-0.67578 z m -5.4218,0.19727 c 0.1501,-0.0214 0.3438,0.16243 0.5586,0.73242 c -1.0547,1.2316 -1.009,-0.66817 -0.5586,-0.73242 z m 7.7949,0.70117 c 0.1021,0.0238 0.2535,0.15459 0.4629,0.45703 c -0.4449,1.34502 -0.9053,-0.56037 -0.4629,-0.45703 z m 1.291,0.44531 c 0.1356,0.0262 0.3124,0.16028 0.5293,0.46484 c -0.94,1.31977 -1.1168,-0.57825 -0.5293,-0.46484 z m -0.959,2.23438 c 0.6046,0.0702 1.3122,0.68335 1.7266,2.31445 c -3.8879,-6.4e-4 -3.0566,-2.46886 -1.7266,-2.31445 z m 2.7715,0.48242 c 0.1356,0.0262 0.3104,0.16028 0.5274,0.46484 c -0.94,1.31978 -1.1149,-0.57825 -0.5274,-0.46484 z m -15.1074,0.52539 c -0.01,-4.3e-4 -0.02,0.0364 -0.029,0.0449 c 0.072,0.28713 0.1187,0.57578 0.1367,0.86523 c 0.1218,-0.13864 0.021,-0.90443 -0.1074,-0.91015 z m 18.3437,4.00976 c 0.1022,0.0238 0.2516,0.1546 0.461,0.45704 c -0.4449,1.34502 -0.9034,-0.56038 -0.461,-0.45704 z m -3.0351,2.25977 c 0.1084,-0.0377 0.369,-0.0118 0.8652,0.15039 c -0.1473,0.65372 -1.1904,-0.0373 -0.8652,-0.15039 z m 6.7793,2.91211 c 0.5842,-0.0623 0.8755,0.61764 0.2461,2.77344 c -5.1465,2.39192 -1.7391,-2.61432 -0.2461,-2.77344 z m -18.8653,0.83398 c 0.6049,3.80408 -2.529,0.30096 0,0 z m 21.3614,3.41211 c 0.2548,-0.0221 0.6622,0.11159 1.2402,0.54688 c -1.4058,0.99546 -2.0046,-0.48064 -1.2402,-0.54688 z m -9.0703,0.33203 c 0.1403,-0.0211 0.3297,0.0257 0.5742,0.1875 c -0.8586,1.2636 -1.1823,-0.0961 -0.5742,-0.1875 z m -1.3125,1.5625 c 0.1355,0.0262 0.3124,0.15833 0.5293,0.46289 c -0.9399,1.31976 -1.1168,-0.57631 -0.5293,-0.46289 z m -5.9766,3.42383 c 0.3174,-0.0602 0.8452,0.22059 1.5254,1.22461 c -1.9092,0.68474 -2.2236,-1.09216 -1.5254,-1.22461 z m 4.5723,3.84375 c 0.1403,-0.0211 0.3297,0.0257 0.5742,0.1875 c -0.8587,1.2636 -1.1823,-0.0961 -0.5742,-0.1875 z"
         style="opacity:0.25;fill:#000000" />
    </g>
    <g
       id="g4257">
      <path
         id="path3380"
         d="m 1150.3064,787.44551 c 1.0744,8.96993 2.2492,17.94953 2.8254,26.95931 c -0.7617,11.02014 -5.0972,23.14291 1.2914,33.38595 c 4.3339,3.92061 4.6162,8.17933 -1.49,5.37352 c -4.7507,-1.78 -6.4268,-4.81182 -9.2378,-7.98422 c -1.5732,-1.07931 -2.6162,-4.07181 -3.1191,-4.27116 c -1.0734,-3.56738 -4.5455,-6.25979 -3.0336,-6.64293 c -2.8698,-4.40761 -2.9452,-6.71622 -4.7352,-11.44685 c 0.8578,6.33408 -0.9747,-4.80958 -2.5436,-6.91419 c -1.7807,-4.40584 -1.6138,-17.04836 -7.604,-14.82214 c -3.1849,3.02627 1.7697,10.55968 1.5294,15.25997 c 3.6151,13.53348 6.0998,27.41069 6.176,41.44538 c 0.4097,7.36844 7.7538,13.37147 14.9212,13.53 c 7.0079,2.36076 14.1041,-3.46695 20.0334,-2.39992 c 9.6615,5.74765 20.9775,7.00366 31.6401,9.74295 c 6.9923,4.07315 11.2848,11.22441 5.5315,18.30823 c -2.1436,4.5011 -2.8381,9.4118 -4.7546,13.96918 c 9.5848,-2.8237 19.441,-4.77479 29.2056,-6.97857 c 14.5236,3.97679 23.0214,20.11654 21.5723,34.47901 c 0.4122,4.61418 -6.3611,13.86862 -4.3817,14.41833 c 10.7349,-5.15061 20.2504,-13.03793 27.2937,-22.66216 c 1.6834,-5.26107 4.1878,-8.49587 3.9111,-13.72862 c 0.3267,-7.279 0.2637,-15.21099 -2.6304,-21.64342 c -0.6635,-1.69034 -2.6949,-5.92853 -4.0048,-7.45088 c -5.0079,-6.1516 -9.2229,-13.30727 -16.3323,-17.30304 c -3.4849,-4.50982 -9.2466,-9.13922 -12.0273,-14.2433 c -4.8976,-5.24363 -11.8217,-8.47509 -18.2129,-11.17999 c 1.3404,-0.20487 -7.5644,-3.85638 -10.2715,-4.12912 c -2.4963,-2.58726 -7.6961,-2.64089 -10.1592,-4.8772 c -3.8802,-0.95061 -5.6116,-4.68053 -9.3426,-7.6932 c -2.7543,-2.83789 -4.9908,-5.39045 -8.7068,-7.42304 c -4.1736,-1.6314 -9.9466,-4.43879 -14.167,-6.24984 c -4.6248,-4.78411 -9.394,-9.96439 -11.8109,-16.40826 c -2.6482,-3.37503 -0.343,-13.87265 -4.003,-13.35757 c -1.4153,0.88807 -4.4961,0.44697 -3.3628,2.93779 z"
         style="color:#000000;clip-rule:nonzero;display:inline;overflow:visible;visibility:visible;opacity:1;isolation:auto;mix-blend-mode:normal;color-interpolation:sRGB;color-interpolation-filters:linearRGB;solid-color:#000000;solid-opacity:1;fill:#ff2a2a;fill-opacity:1;fill-rule:nonzero;stroke:#000000;stroke-width:2.23574281;stroke-linecap:butt;stroke-linejoin:miter;stroke-miterlimit:4;stroke-dasharray:none;stroke-dashoffset:0;stroke-opacity:1;color-rendering:auto;image-rendering:auto;shape-rendering:auto;text-rendering:auto;enable-background:accumulate" />
      <path
         id="path3413"
         d="m 1153.996,784.4909 c -0.1031,-0.005 -0.2118,10e-4 -0.3262,0.0176 c -1.4153,0.88807 -4.4966,0.44668 -3.3633,2.9375 c 0.034,0.28776 0.071,0.57551 0.1055,0.86328 c 0.2645,0.17348 0.5224,0.41183 0.7695,0.74024 c -0.4345,9.84514 2.4873,14.68108 2.5723,25.26953 c -0.9546,8.25474 -3.3519,17.53259 -1.9961,25.58789 c 0.1235,-0.20021 0.3816,-0.22525 0.7813,0.33594 c -0.2869,0.40282 -0.5019,0.50495 -0.6465,0.45703 c 0.5787,2.86671 1.6574,5.56781 3.5,7.99219 c 0.094,0.12262 0.1456,0.20292 0.2324,0.31836 c 0.9392,1.05872 1.5762,2.08643 1.8398,2.93554 c 8e-4,0.002 10e-4,0.005 0,0.008 c 0.014,0.0488 0.023,0.0931 0.029,0.13476 c 0.4585,1.71563 -0.6473,2.62104 -3.7265,1.42383 c 0.1714,0.29135 0.3364,0.57646 0.582,0.94531 l -0.7187,0.21485 c -16.4117,-8.71358 -22.1719,-28.75012 -25.9961,-45.6543 c 0.4809,0.25283 0.7929,0.40594 1.1953,0.61328 c -0.2056,-1.09103 -0.4262,-2.17878 -0.6914,-3.21875 c -1.5784,-1.73146 -3.1326,-3.70224 -3.8418,-5.56641 c -0.4895,-0.0561 -1.0309,0.0105 -1.6387,0.23633 c -0.9282,0.882 -1.1537,2.15318 -1.0293,3.61914 c 0.3387,1.60721 0.7375,3.2594 1.1524,4.92383 c 0.5427,1.76756 1.0982,3.54394 1.3144,5.13672 c 1.8508,7.03397 3.7943,14.35901 4.4024,21.51172 c 0.5681,3.54358 1.0252,7.10205 1.3417,10.67578 c 1.3212,1.55927 1.964,3.46457 0.5489,5.69531 c -0.056,0.15153 -0.095,0.30352 -0.1426,0.45508 c 0.067,1.56037 0.1087,3.12296 0.1172,4.6875 c 0.044,0.78469 0.1807,1.55051 0.373,2.29883 c 2.415,5.87105 8.8651,10.41912 9.6621,10.13867 c 0.2106,0.12067 0.4232,0.22209 0.6348,0.32617 c 1.3873,0.46117 2.8223,0.73596 4.252,0.76758 c 0.4867,0.16398 0.9737,0.27912 1.4609,0.36914 c 7.6961,-0.32681 15.5182,-6.54073 21.5703,-1.29297 c 5.0991,2.0824 10.1636,3.37828 15.4238,4.67383 c -0.1827,-7e-5 -0.467,0.0406 -0.9785,0.19141 c 0.054,0.0947 0.1317,0.15516 0.2207,0.1914 c 0.013,0.003 0.026,0.005 0.039,0.008 c 0.3969,0.12655 0.984,-0.18646 0.9473,-0.33399 c 3.065,0.75406 6.18,1.51288 9.4531,2.42969 c 0.9401,0.21016 1.9132,0.53516 2.8848,0.94922 c 0.2164,0.0543 0.4364,0.10077 0.6523,0.15625 c 0.4215,0.24551 0.8322,0.50234 1.2325,0.76953 c 6.1168,3.33741 11.3135,9.73649 6.8613,13.11523 c -0.7458,4.91454 -2.5842,9.7254 -5.6426,13.47657 c -0.4884,1.65906 -1.0009,3.31125 -1.6758,4.91601 c 2.2208,-0.65424 4.4578,-1.25748 6.7031,-1.83203 c 4.1629,-1.1749 8.346,-2.18784 12.5313,-2.93164 c 3.3255,-0.73478 6.6541,-1.46587 9.9727,-2.21484 c 0.9258,0.2535 1.8253,0.5575 2.7011,0.90625 c 0.4849,-0.0108 0.9708,-0.0366 1.4551,-0.0371 c 12.1507,5.76106 20.1209,19.2678 19.5117,32.96679 c -1.9107,5.993 -3.5722,9.61715 -6.0176,11.875 c -0.7525,1.72495 -1.1466,2.99707 -0.4609,3.1875 c 5.8775,-2.82002 11.3854,-6.46502 16.3262,-10.76172 c 1.7622,-1.69929 3.5727,-3.38784 5.3261,-5.11523 c 2.0182,-2.14655 3.9062,-4.41249 5.6426,-6.78516 c 1.6834,-5.26107 4.1869,-8.49576 3.9102,-13.72851 c 0.3267,-7.279 0.2632,-15.2121 -2.6309,-21.64453 c -0.4013,-1.02251 -1.3061,-2.94597 -2.2461,-4.66797 c -0.8961,-1.4491 -1.873,-2.85764 -2.9043,-4.23828 c -0.5095,-0.6523 -1.0187,-1.30643 -1.5215,-1.96875 c -3.6087,-4.49974 -7.7775,-8.68116 -11.9257,-12.79102 c -0.5628,-0.38113 -1.1363,-0.74954 -1.7383,-1.08789 c -3.4849,-4.50982 -9.2467,-9.13811 -12.0274,-14.24219 c -2.2228,-2.37984 -4.873,-4.3317 -7.6914,-6.02148 c -2.0421,-0.12126 -4.6028,-1.83873 -5.9746,-2.95313 c -6.0624,-2.7588 -15.97,-6.12107 -23.0683,-10.04687 c -0.5981,-0.26885 -1.1557,-0.56892 -1.625,-0.9375 c -0.1479,-0.0898 -0.2853,-0.18112 -0.4297,-0.27149 c -3.7765,-1.00832 -5.5142,-4.67642 -9.1973,-7.65039 c -0.1097,-0.11302 -0.2102,-0.21797 -0.3183,-0.33007 c -3.2586,-1.52162 -8.2032,-5.65142 -13.1973,-9.14063 c -3.203,-1.42768 -6.6028,-3.01828 -9.3594,-4.20117 c -0.3568,-0.36907 -0.7149,-0.74496 -1.0723,-1.11914 c -0.1786,-0.0319 -0.3589,-0.0696 -0.5332,-0.0899 c -6.5661,-6.12297 -15.619,-18.97274 -13.3046,-28.4121 c -0.1708,-0.0946 -0.3604,-0.15194 -0.5762,-0.16211 z m -2.1035,56.20898 c -0.053,-0.26182 -0.09,-0.52842 -0.1348,-0.79297 c -0.1453,0.23558 -0.1022,0.71442 0.1348,0.79297 z m 0.8594,-33.90234 c -0.06,-0.003 -0.1255,0.16723 -0.1758,0.64453 c 4e-4,0.005 0,0.009 0,0.0137 c 0.4854,0.88852 0.3549,-0.6501 0.1738,-0.6582 z m 5.6191,0.92382 c 1.8903,-0.23019 5.4798,6.10927 9.3809,8.57618 c 6.3281,4.64885 12.5075,6.37084 14.08,7.60742 c 2.3608,0.15107 7.5199,5.06477 -1.4238,6.04297 c -4.4115,6.25927 -18.5587,-2.25873 -18.6387,9.58789 c -0.7997,1.16293 -3.689,0.96003 -2.9687,-1.10547 c 3.4465,-9.45088 1.0917,-19.04176 -1.8028,-23.43945 c -0.141,-5.22644 0.3829,-7.14896 1.3731,-7.26954 z m 7.7519,12.78907 c -0.3251,3.21712 -6.3312,6.65171 3.7872,9.87304 c 0.6946,-1.17682 3.7147,-1.66437 5.3554,-2.25586 c 0.086,-4.67677 -6.3517,-5.95119 -9.1426,-7.61718 z m 0.1661,1.05859 c 0.2212,-0.0223 0.6043,0.11624 1.1933,0.5625 c -1.0633,1.01788 -1.8569,-0.49544 -1.1933,-0.5625 z m 11.0547,4.60547 c -0.1654,0.0297 -0.3625,0.16991 -0.5801,0.48437 c 1.4144,1.31903 1.2965,-0.61325 0.5801,-0.48437 z m -6.3243,0.69141 c 0.1471,-0.0472 0.336,0.18289 0.5371,0.95117 c -1.0498,1.83586 -0.9783,-0.80963 -0.5371,-0.95117 z m -38.1035,11.45312 c 0.7349,2.49354 -0.7925,0.45249 0,0 z m 2.0918,1.14453 c 0.4076,0.10038 1.1947,1.28904 2.4824,4.40039 c -0.9018,0.17085 -0.868,1.16774 -0.9746,1.87696 c -1.4674,-1.44846 -2.4044,-6.49819 -1.5078,-6.27735 z m 5.0703,6.66016 c 0.1021,0.0238 0.2535,0.15459 0.4629,0.45703 c -0.4449,1.34516 -0.9053,-0.56033 -0.4629,-0.45703 z m -1.1152,0.66992 c 1.6072,0.0594 5.2565,6.05336 10.2031,8.11914 c -2.5806,2.70365 -9.7151,5.0156 -14.3711,8.14063 c -7.3563,-0.37913 1.948,-6.13741 3.6406,-7.82618 c -0.665,-6.36821 -0.4369,-8.46922 0.5274,-8.43359 z m 13.043,6.10156 c -0.066,0.0257 -0.058,0.1638 0.082,0.47852 c 1.8598,1.38537 0.2034,-0.5899 -0.082,-0.47852 z m 43.4004,1.6836 c 3.4696,0.0905 9.4757,1.27607 6.4824,3.15429 c -0.3388,3.61964 -3.8472,-1.0222 -4.5489,-1.1914 c -5.7971,-1.44255 -4.6321,-2.03327 -1.9335,-1.96289 z m 36.8203,0.99023 c 2.6799,-0.0876 0.1332,7.06571 0.4316,2.34375 c -1.3072,0.81957 -2.5069,1.82744 -3.6738,2.9375 c -0.014,-0.75637 -0.3807,-1.68014 -0.8262,0.0215 c 0.1295,0.2265 0.2352,0.3656 0.332,0.46876 c -3.1035,3.05038 -6.0458,6.77677 -10.2383,9.74609 c 6.2017,2.51482 7.1186,-3.67275 11.6739,-7.71485 c -0.4099,7.07763 3.5103,-5.68138 7.2871,-6.10156 c 10.2909,7.04171 -9.9393,14.17312 -15.0293,21.11914 l -2.9316,2.53125 c -14.9624,-7.7289 2.4551,-15.07338 8.2539,-22.14257 c 2.354,-2.34631 3.8274,-3.17979 4.7207,-3.20899 z m -25.6504,1.16992 c 0.302,0.0326 0.7391,0.37987 1.3476,1.20313 c -0.6609,7.59378 -2.9787,-1.37897 -1.3476,-1.20313 z m 5.1426,0.89258 c 4.3089,-0.0181 6.4909,0.69319 11.1816,1.25586 c -2.872,3.08097 -4.9424,2.22289 -9.6465,2.18359 c 0.4059,-0.7142 -9.2118,-0.18341 -1.5351,-3.43945 z m 15.957,6.41797 c 0.1264,-3.1e-4 0.286,0.0391 0.4824,0.13672 c -0.6538,1.8497 -1.3672,-0.13454 -0.4824,-0.13672 z m -3.6543,2.9043 c 0.1315,0.0384 0.3032,0.2343 0.5137,0.68164 c -0.9122,1.93843 -1.0838,-0.84823 -0.5137,-0.68164 z m 12.8457,3.17773 c 1.0362,0.23722 4.5058,11.42492 6.2949,9.46484 c -0.3386,4.07666 -18.7306,11.08933 -8.875,10.94141 c 0.4835,-0.10974 0.9429,-0.19829 1.3965,-0.2832 c 0.022,-0.46992 0.5187,-1.26177 0.8516,-0.20508 c -0.036,0.0378 -0.053,0.0413 -0.086,0.0742 c 7.6423,-1.23609 11.1442,1.24992 17.2167,6.57617 c -1.6046,1.86764 -30.7726,4.68942 -10.1132,-1.66992 c -2.8751,-2.91132 -23.3752,3.79648 -28.6797,10.3457 c -11.2883,3.23492 1.4019,-4.1684 3.33,-7.28906 c 1.344,0.10882 12.382,-8.00015 14.6368,-18.40235 c 0.7047,-4.8846 -6.4278,1.96793 -11.4746,9.66407 c -8.0535,5.51988 7.2228,-18.4907 15.2617,-18.91211 c 0.051,-0.2365 0.133,-0.32923 0.2402,-0.30469 z m -0.418,19.99219 c -0.252,0.0408 -0.5043,0.0819 -0.7656,0.13086 c -0.014,0.30649 0.1832,0.44797 0.7656,-0.13086 z m -28.3633,-14.01563 c 5.1626,0.18922 12.0734,7.30541 4.1407,9.99414 c -3.6774,2.55316 -5.3879,-5.39359 -8.4043,-6.35351 c 0.4908,-2.72764 2.2435,-3.71467 4.2636,-3.64063 z m 20.9004,6.23243 c 0.1356,0.0262 0.3124,0.16025 0.5293,0.46484 c -0.9399,1.31977 -1.1167,-0.5783 -0.5293,-0.46484 z m -23.1953,1.94531 c 0.9514,1.79292 -1.0203,0.42321 0,0 z m 45.3828,7.11133 c 0.1356,0.0262 0.3124,0.1583 0.5293,0.46289 c -0.94,1.31976 -1.1168,-0.57636 -0.5293,-0.46289 z m -31.3242,1.24023 c -1.9038,5.50207 -3.0805,0.0181 0,0 z m -3.1074,3.0625 c 0.2246,0.006 0.56,0.14066 1.0019,0.50977 c -1.3611,0.60278 -1.6758,-0.52902 -1.0019,-0.50977 z m -0.9317,1.38086 c 0.1404,-0.0211 0.3297,0.0257 0.5743,0.1875 c -0.8586,1.2636 -1.1823,-0.0961 -0.5743,-0.1875 z m 40.6485,1.49414 c 0.6126,-0.0566 1.5151,0.83092 2.6074,3.58594 c -3.8507,2.87608 -4.1731,-3.44134 -2.6074,-3.58594 z m -23.4551,0.82813 c 0.2169,0.007 0.5517,0.16916 1.0391,0.58203 c -0.7014,2.24858 -1.9789,-0.61193 -1.0391,-0.58203 z m -3.8711,1.97265 c 1.7165,0.0738 6.573,1.36343 7.8535,1.35156 c 4.1131,3.39294 16.1971,-2.03298 15.7285,4.35352 c -6.9478,-1.3774 -10.7396,1.31169 -18.7246,-2.48438 c -5.6271,-2.59931 -6.1924,-3.2781 -4.8574,-3.2207 z m -10.6289,1.50391 c 0.091,-0.0418 0.354,0.0898 0.8789,0.51562 c 1.5291,3.10517 -1.2753,-0.33457 -0.8789,-0.51562 z m 23.0352,6.11133 c 0.058,-0.044 0.3054,0.0784 0.8808,0.52929 c 0.476,1.2342 -1.0558,-0.39726 -0.8808,-0.52929 z m 29.6757,14.48437 c 0.4187,0.10193 0.5761,1.05514 -0.1328,3.61328 c -2.9755,0.0529 -0.7881,-3.83753 0.1328,-3.61328 z m -21.9609,5.3457 c -0.051,-0.0402 -0.1152,0.16583 -0.1816,0.84766 c 0.37,1.61285 0.3346,-0.72717 0.1816,-0.84766 z m 0.3965,2.4961 c -0.061,-0.003 -0.1272,0.16625 -0.1777,0.65429 c 0.4902,0.90445 0.3593,-0.64618 0.1777,-0.65429 z m 0.4961,2.75195 c -0.07,-0.10478 -0.1925,0.63719 -0.3848,2.99609 c 0.3219,5.25198 0.5936,-2.68173 0.3848,-2.99609 z m -0.9102,6.11133 c -0.046,0.0329 -0.1054,0.20131 -0.1797,0.58398 c 0.322,1.65836 0.3809,-0.72645 0.1797,-0.58398 z m 4.9844,3.06055 c 0.1824,-0.0226 0.4129,0.15476 0.6523,0.71679 c -1.32,1.22876 -1.1995,-0.64895 -0.6523,-0.71679 z"
         style="opacity:0.25;fill:#000000" />
    </g>
  </g>
</svg>
